<svg width="26" height="17" viewBox="0 0 26 17" fill="none" xmlns="http://www.w3.org/2000/svg">
<path d="M12.4453 12.3051L11.7017 13.5924C11.4236 14.0736 11.0611 14.4767 10.6424 14.7891C9.40823 15.7109 7.69598 15.864 6.28055 15.0453L5.92434 14.8391C5.89622 14.8235 5.87122 14.8079 5.8431 14.7891C4.00898 13.6768 3.39031 11.2896 4.47141 9.41799L4.9401 8.60872C5.04321 8.45562 5.13382 8.29627 5.21506 8.13379L12.4453 12.3051Z" stroke="black" stroke-linecap="round" stroke-linejoin="round"/>
<path d="M5.2149 8.13379C5.13367 8.29627 5.04305 8.45562 4.93994 8.60872L5.2149 8.13379Z" stroke="black" stroke-linecap="round" stroke-linejoin="round"/>
<path d="M14.6425 14.7891H10.8868H10.6431" stroke="black" stroke-linecap="round" stroke-linejoin="round"/>
<path d="M4.94003 8.6084C4.07452 9.95196 2.55911 10.8393 0.8406 10.8393H0.734375L1.79984 14.7888H5.84303" stroke="black" stroke-linecap="round" stroke-linejoin="round"/>
<path d="M5.21533 8.1337V1.19092" stroke="black" stroke-linecap="round" stroke-linejoin="round"/>
<path d="M19.685 14.7893C19.6569 14.8081 19.6319 14.8237 19.6038 14.8393L19.2507 15.0455C17.8321 15.8642 16.1199 15.7111 14.8857 14.7893C14.467 14.4768 14.1045 14.0738 13.8265 13.5926L13.0859 12.3053L20.3131 8.13086C20.3943 8.29646 20.488 8.45581 20.588 8.60892L21.0567 9.41818C22.1378 11.2898 21.5223 13.677 19.685 14.7893Z" stroke="black" stroke-linecap="round" stroke-linejoin="round"/>
<path d="M20.5884 8.60872C20.4885 8.45562 20.3947 8.29627 20.3135 8.13379L20.5884 8.60872Z" stroke="black" stroke-linecap="round" stroke-linejoin="round"/>
<path d="M10.8862 14.7891H14.6419H14.8857" stroke="black" stroke-linecap="round" stroke-linejoin="round"/>
<path d="M20.5881 8.6084C21.4567 9.95196 22.9721 10.8393 24.6906 10.8393H24.7937L23.7282 14.7888H19.6851" stroke="black" stroke-linecap="round" stroke-linejoin="round"/>
<path d="M20.3159 8.1337V1.19092" stroke="black" stroke-linecap="round" stroke-linejoin="round"/>
</svg>
