<svg width="23" height="22" viewBox="0 0 23 22" fill="none" xmlns="http://www.w3.org/2000/svg">
<path d="M22.309 10.1177V14.7045C22.309 16.5386 20.9404 18.0478 19.1719 18.2728C19.0032 18.2946 18.8751 18.4384 18.8751 18.6102V20.9974L16.3848 18.8071C16.0161 18.479 15.538 18.3009 15.0475 18.3009H11.2792C9.86069 18.3009 8.63586 17.4823 8.05469 16.2918L8.07656 16.2731C8.539 15.8669 9.12955 15.645 9.74196 15.645H14.4288C16.8972 15.645 18.8969 13.6453 18.8969 11.1738V6.52441C20.7967 6.62128 22.309 8.19293 22.309 10.1177Z" stroke="black" stroke-linecap="round" stroke-linejoin="round"/>
<path d="M14.4294 1H5.18072C2.71232 1 0.709473 2.99972 0.709473 5.46813V11.1736C0.709473 13.4514 2.41236 15.3293 4.61518 15.6105C4.82452 15.6355 4.98075 15.8167 4.98075 16.0292V18.9975L8.05532 16.2916L8.07719 16.2729C8.53963 15.8667 9.13017 15.6448 9.74259 15.6448H14.4294C16.8978 15.6448 18.8976 13.6451 18.8976 11.1736V5.46813C18.8976 2.99972 16.8978 1 14.4294 1Z" stroke="black" stroke-linecap="round" stroke-linejoin="round"/>
<path d="M14.4294 1H5.18072C2.71232 1 0.709473 2.99972 0.709473 5.46813V11.1736C0.709473 13.4514 2.41236 15.3293 4.61518 15.6105C4.82452 15.6355 4.98075 15.8167 4.98075 16.0292V18.9975L8.05532 16.2916L8.07719 16.2729C8.53963 15.8667 9.13017 15.6448 9.74259 15.6448H14.4294C16.8978 15.6448 18.8976 13.6451 18.8976 11.1736V5.46813C18.8976 2.99972 16.8978 1 14.4294 1ZM5.90874 9.28634C5.4713 9.28634 5.1151 8.93015 5.1151 8.49271C5.1151 8.05527 5.4713 7.69907 5.90874 7.69907C6.34618 7.69907 6.70238 8.05527 6.70238 8.49271C6.70238 8.93015 6.34618 9.28634 5.90874 9.28634ZM9.80507 9.28634C9.36764 9.28634 9.01143 8.93015 9.01143 8.49271C9.01143 8.05527 9.36764 7.69907 9.80507 7.69907C10.2425 7.69907 10.5987 8.05527 10.5987 8.49271C10.5987 8.93015 10.2425 9.28634 9.80507 9.28634ZM13.7014 9.28634C13.2608 9.28634 12.9078 8.93015 12.9078 8.49271C12.9078 8.05527 13.2608 7.69907 13.7014 7.69907C14.142 7.69907 14.495 8.05527 14.495 8.49271C14.495 8.93015 14.1388 9.28634 13.7014 9.28634Z" fill="black"/>
</svg>
