<svg width="23" height="22" viewBox="0 0 23 22" fill="none" xmlns="http://www.w3.org/2000/svg">
<path d="M22.309 10.1177V14.7045C22.309 16.5386 20.9404 18.0478 19.1719 18.2728C19.0032 18.2946 18.8751 18.4384 18.8751 18.6102V20.9974L16.3848 18.8071C16.0161 18.479 15.538 18.3009 15.0475 18.3009H11.2792C9.86069 18.3009 8.63586 17.4823 8.05469 16.2918L8.07656 16.2731C8.539 15.8669 9.12955 15.645 9.74196 15.645H14.4288C16.8972 15.645 18.8969 13.6453 18.8969 11.1738V6.52441C20.7967 6.62128 22.309 8.19293 22.309 10.1177Z" stroke="black" stroke-linecap="round" stroke-linejoin="round"/>
<path d="M14.4294 1H5.18072C2.71232 1 0.709473 2.99972 0.709473 5.46813V11.1736C0.709473 13.4514 2.41236 15.3293 4.61518 15.6105C4.82452 15.6355 4.98075 15.8167 4.98075 16.0292V18.9975L8.05532 16.2916L8.07719 16.2729C8.53963 15.8667 9.13017 15.6448 9.74259 15.6448H14.4294C16.8978 15.6448 18.8976 13.6451 18.8976 11.1736V5.46813C18.8976 2.99972 16.8978 1 14.4294 1Z" stroke="black" stroke-linecap="round" stroke-linejoin="round"/>
<path d="M5.90888 9.2865C5.47144 9.2865 5.11523 8.9303 5.11523 8.49286C5.11523 8.05542 5.47144 7.69922 5.90888 7.69922C6.34632 7.69922 6.70252 8.05542 6.70252 8.49286C6.70252 8.9303 6.34632 9.2865 5.90888 9.2865Z" fill="black"/>
<path d="M9.80438 9.2865C9.36695 9.2865 9.01074 8.9303 9.01074 8.49286C9.01074 8.05542 9.36695 7.69922 9.80438 7.69922C10.2418 7.69922 10.598 8.05542 10.598 8.49286C10.598 8.9303 10.2418 9.2865 9.80438 9.2865Z" fill="black"/>
<path d="M13.7014 9.2865C13.2608 9.2865 12.9077 8.9303 12.9077 8.49286C12.9077 8.05542 13.2608 7.69922 13.7014 7.69922C14.1419 7.69922 14.495 8.05542 14.495 8.49286C14.495 8.9303 14.1388 9.2865 13.7014 9.2865Z" fill="black"/>
</svg>
