<svg width="24" height="24" viewBox="0 0 24 24" fill="none" xmlns="http://www.w3.org/2000/svg">
<path d="M16.1201 4.1001C18.6636 4.10019 20.6551 6.09175 20.6553 8.63525C20.6553 10.2014 19.9552 11.6615 18.6221 13.2925C17.2834 14.9302 15.3594 16.6785 12.9922 18.8296L12.001 19.7251L11.0088 18.8218V18.8208L9.31836 17.2817C7.7155 15.8082 6.382 14.519 5.37793 13.2915C4.04495 11.6618 3.34473 10.2014 3.34473 8.63525C3.34487 6.09178 5.3364 4.10024 7.87988 4.1001C9.32138 4.1001 10.713 4.77349 11.6191 5.8374L12 6.28467L12.3809 5.8374C13.287 4.77347 14.6786 4.1001 16.1201 4.1001Z" stroke="black"/>
</svg>
