<?xml version="1.0" encoding="UTF-8"?><svg id="Layer_2" xmlns="http://www.w3.org/2000/svg" viewBox="0 0 63.79 63.79"><defs><style>.cls-1{fill:none;stroke:#000;stroke-linecap:round;stroke-linejoin:round;stroke-width:3px;}</style></defs><g id="Layer_1-2"><rect class="cls-1" x="3.16" y="26.62" width="57.5" height="10.58" transform="translate(-13.22 31.91) rotate(-45)"/><line class="cls-1" x1="43.84" y1="27.13" x2="36.74" y2="20.03"/><path class="cls-1" d="M14.38,1.5c0,7.12-5.77,12.88-12.88,12.88"/><path class="cls-1" d="M27.27,14.38c-7.12,0-12.88-5.77-12.88-12.88"/><path class="cls-1" d="M14.39,27.27c0-7.12,5.77-12.88,12.88-12.88"/><path class="cls-1" d="M1.5,14.39c7.12,0,12.88,5.77,12.88,12.88"/><path class="cls-1" d="M49.4,36.52c0,7.12-5.77,12.88-12.88,12.88"/><path class="cls-1" d="M62.29,49.4c-7.12,0-12.88-5.77-12.88-12.88"/><path class="cls-1" d="M49.41,62.29c0-7.12,5.77-12.88,12.88-12.88"/><path class="cls-1" d="M36.52,49.41c7.12,0,12.88,5.77,12.88,12.88"/></g></svg>