<svg width="18" height="26" viewBox="0 0 18 26" fill="none" xmlns="http://www.w3.org/2000/svg">
<path d="M15.263 14.5397C16.3467 14.5397 17.2252 13.6612 17.2252 12.5775C17.2252 11.4938 16.3467 10.6152 15.263 10.6152C14.1793 10.6152 13.3008 11.4938 13.3008 12.5775C13.3008 13.6612 14.1793 14.5397 15.263 14.5397Z" stroke="black" stroke-linecap="round" stroke-linejoin="round"/>
<path d="M15.0355 18.82C16.1192 18.82 16.9977 17.9414 16.9977 16.8577C16.9977 15.774 16.1192 14.8955 15.0355 14.8955C13.9518 14.8955 13.0732 15.774 13.0732 16.8577C13.0732 17.9414 13.9518 18.82 15.0355 18.82Z" stroke="black" stroke-linecap="round" stroke-linejoin="round"/>
<path d="M13.2132 22.9953C14.2969 22.9953 15.1754 22.1167 15.1754 21.033C15.1754 19.9493 14.2969 19.0708 13.2132 19.0708C12.1295 19.0708 11.251 19.9493 11.251 21.033C11.251 22.1167 12.1295 22.9953 13.2132 22.9953Z" stroke="black" stroke-linecap="round" stroke-linejoin="round"/>
<path d="M9.17316 24.651C10.2569 24.651 11.1354 23.7725 11.1354 22.6888C11.1354 21.6051 10.2569 20.7266 9.17316 20.7266C8.08946 20.7266 7.21094 21.6051 7.21094 22.6888C7.21094 23.7725 8.08946 24.651 9.17316 24.651Z" stroke="black" stroke-linecap="round" stroke-linejoin="round"/>
<path d="M15.0286 10.2623C16.1123 10.2623 16.9909 9.38382 16.9909 8.30012C16.9909 7.21641 16.1123 6.33789 15.0286 6.33789C13.9449 6.33789 13.0664 7.21641 13.0664 8.30012C13.0664 9.38382 13.9449 10.2623 15.0286 10.2623Z" stroke="black" stroke-linecap="round" stroke-linejoin="round"/>
<path d="M13.2078 6.08461C14.2915 6.08461 15.1701 5.20609 15.1701 4.12238C15.1701 3.03867 14.2915 2.16016 13.2078 2.16016C12.1241 2.16016 11.2456 3.03867 11.2456 4.12238C11.2456 5.20609 12.1241 6.08461 13.2078 6.08461Z" stroke="black" stroke-linecap="round" stroke-linejoin="round"/>
<path d="M9.1673 4.43129C10.251 4.43129 11.1295 3.55277 11.1295 2.46906C11.1295 1.38535 10.251 0.506836 9.1673 0.506836C8.0836 0.506836 7.20508 1.38535 7.20508 2.46906C7.20508 3.55277 8.0836 4.43129 9.1673 4.43129Z" stroke="black" stroke-linecap="round" stroke-linejoin="round"/>
<path d="M3.07746 14.5397C4.16117 14.5397 5.03969 13.6612 5.03969 12.5775C5.03969 11.4938 4.16117 10.6152 3.07746 10.6152C1.99375 10.6152 1.11523 11.4938 1.11523 12.5775C1.11523 13.6612 1.99375 14.5397 3.07746 14.5397Z" stroke="black" stroke-linecap="round" stroke-linejoin="round"/>
<path d="M3.30598 10.2623C4.38968 10.2623 5.2682 9.38382 5.2682 8.30012C5.2682 7.21641 4.38968 6.33789 3.30598 6.33789C2.22227 6.33789 1.34375 7.21641 1.34375 8.30012C1.34375 9.38382 2.22227 10.2623 3.30598 10.2623Z" stroke="black" stroke-linecap="round" stroke-linejoin="round"/>
<path d="M5.12678 6.08461C6.21048 6.08461 7.089 5.20609 7.089 4.12238C7.089 3.03867 6.21048 2.16016 5.12678 2.16016C4.04307 2.16016 3.16455 3.03867 3.16455 4.12238C3.16455 5.20609 4.04307 6.08461 5.12678 6.08461Z" stroke="black" stroke-linecap="round" stroke-linejoin="round"/>
<path d="M3.30891 18.82C4.39261 18.82 5.27113 17.9414 5.27113 16.8577C5.27113 15.774 4.39261 14.8955 3.30891 14.8955C2.2252 14.8955 1.34668 15.774 1.34668 16.8577C1.34668 17.9414 2.2252 18.82 3.30891 18.82Z" stroke="black" stroke-linecap="round" stroke-linejoin="round"/>
<path d="M5.13019 22.9953C6.2139 22.9953 7.09242 22.1167 7.09242 21.033C7.09242 19.9493 6.2139 19.0708 5.13019 19.0708C4.04649 19.0708 3.16797 19.9493 3.16797 21.033C3.16797 22.1167 4.04649 22.9953 5.13019 22.9953Z" stroke="black" stroke-linecap="round" stroke-linejoin="round"/>
<path d="M9.17316 24.651C10.2569 24.651 11.1354 23.7725 11.1354 22.6888C11.1354 21.6051 10.2569 20.7266 9.17316 20.7266C8.08946 20.7266 7.21094 21.6051 7.21094 22.6888C7.21094 23.7725 8.08946 24.651 9.17316 24.651Z" stroke="black" stroke-linecap="round" stroke-linejoin="round"/>
</svg>
