<svg width="21" height="20" viewBox="0 0 21 20" fill="none" xmlns="http://www.w3.org/2000/svg">
<path d="M19.6601 15.9179L17.6261 5.9662C17.5479 5.585 17.3167 5.28816 17.0199 5.15381C17.3167 5.35691 17.5136 5.69748 17.5136 6.08493C17.5136 7.30351 17.0199 8.40648 16.2231 9.20325C15.4264 10 14.3203 10.4968 13.1017 10.4968H7.49934C5.06218 10.4968 3.08745 8.52209 3.08745 6.08493C3.08745 5.97869 3.10307 5.87559 3.12807 5.78185C3.10932 5.84122 3.09058 5.90371 3.07808 5.9662L1.04399 15.9179C0.68466 17.6771 1.82825 19.3675 3.37491 19.3675H17.3323C18.879 19.3675 20.0195 17.6771 19.6601 15.9179ZM11.7487 12.6215C11.7487 13.412 11.1082 14.0494 10.3208 14.0494C9.53343 14.0494 8.89289 13.412 8.89289 12.6215V11.9622C8.89289 11.1748 9.53343 10.5343 10.3208 10.5343C10.7145 10.5343 11.0707 10.6937 11.3301 10.953C11.5894 11.2123 11.7487 11.5685 11.7487 11.9622V12.6215Z" stroke="black" stroke-linecap="round" stroke-linejoin="round"/>
<path d="M11.7479 11.9621V12.6214C11.7479 13.4119 11.1074 14.0493 10.32 14.0493C9.53263 14.0493 8.89209 13.4119 8.89209 12.6214V11.9621C8.89209 11.1747 9.53263 10.5342 10.32 10.5342C10.7137 10.5342 11.0699 10.6935 11.3293 10.9529C11.5886 11.2122 11.7479 11.5684 11.7479 11.9621Z" stroke="black" stroke-linecap="round" stroke-linejoin="round"/>
<path d="M17.514 6.08451C17.514 7.30309 17.0203 8.40607 16.2236 9.20283C15.4268 9.99959 14.3207 10.4964 13.1021 10.4964H7.49977C5.06261 10.4964 3.08789 8.52167 3.08789 6.08451C3.08789 5.97828 3.10351 5.87517 3.12851 5.78143C3.12851 5.77831 3.13163 5.77518 3.13163 5.77518C3.18475 5.58771 3.28474 5.42211 3.41909 5.28775C3.62219 5.08465 3.90653 4.95654 4.21586 4.95654H16.386C16.6204 4.95654 16.836 5.02841 17.0172 5.15027C17.0172 5.15027 17.0203 5.15027 17.0203 5.15339C17.3172 5.35649 17.514 5.69706 17.514 6.08451Z" stroke="black" stroke-linecap="round" stroke-linejoin="round"/>
<path d="M11.7479 11.9621V12.6214C11.7479 13.4119 11.1074 14.0493 10.32 14.0493C9.53263 14.0493 8.89209 13.4119 8.89209 12.6214V11.9621C8.89209 11.1747 9.53263 10.5342 10.32 10.5342C10.7137 10.5342 11.0699 10.6935 11.3293 10.9529C11.5886 11.2122 11.7479 11.5684 11.7479 11.9621Z" stroke="black" stroke-linecap="round" stroke-linejoin="round"/>
<path d="M6.17725 4.95673V4.05373C6.17725 2.22586 7.66141 0.741699 9.48928 0.741699H11.1828C13.0138 0.741699 14.4948 2.22586 14.4948 4.05373V4.95673" stroke="black" stroke-linecap="round" stroke-linejoin="round"/>
</svg>
