<svg width="21" height="12" viewBox="0 0 21 12" fill="none" xmlns="http://www.w3.org/2000/svg">
<path d="M19.9161 7.89913C19.9161 8.89586 19.5099 9.79886 18.86 10.4519C18.207 11.1018 17.304 11.508 16.3072 11.508H15.6479C13.7544 11.508 12.2047 10.052 12.0516 8.19596C12.0422 8.10222 12.0391 8.00536 12.0391 7.9085V7.89601C12.0391 7.33046 12.2734 6.8149 12.6452 6.44308C13.0202 6.06813 13.5389 5.83691 14.1106 5.83691H17.8476C18.9881 5.83691 19.913 6.75866 19.9192 7.89601L19.9161 7.89913Z" stroke="black" stroke-linecap="round" stroke-linejoin="round"/>
<path d="M8.90261 7.89913C8.90261 7.99287 8.89636 8.0866 8.89011 8.17721C8.82137 9.06459 8.43705 9.85823 7.84651 10.4519C7.19348 11.1018 6.29048 11.508 5.29374 11.508H4.63446C2.64411 11.508 1.03183 9.89885 1.02246 7.9085V7.89601C1.02246 7.33046 1.2568 6.8149 1.62863 6.44308C2.00357 6.06813 2.52225 5.83691 3.09405 5.83691H6.83103C7.97149 5.83691 8.89636 6.75866 8.90261 7.89601V7.89913Z" stroke="black" stroke-linecap="round" stroke-linejoin="round"/>
<path d="M1.53418 6.54308C1.53418 6.54308 4.22755 2.34366 5.28366 1.54377C6.34913 0.737637 7.51772 1.43754 7.39274 2.71549" stroke="black" stroke-linecap="round" stroke-linejoin="round"/>
<path d="M19.3502 6.54308C19.3502 6.54308 16.6568 2.34366 15.6007 1.54377C14.5352 0.737637 13.3667 1.43754 13.4916 2.71549" stroke="black" stroke-linecap="round" stroke-linejoin="round"/>
<path d="M8.87695 8.21498C9.09255 7.55569 9.72371 7.07764 10.4642 7.07764C11.2048 7.07764 11.889 7.59632 12.0765 8.29934" stroke="black" stroke-linecap="round" stroke-linejoin="round"/>
</svg>
