<svg width="320" height="250" viewBox="0 0 320 250" fill="none" xmlns="http://www.w3.org/2000/svg">
  <path d="M77.65100000000001 33.94500000000001V62.031000000000006C77.558 64.17 77.186 65.286 75.419 65.286H70.955C70.211 65.286 70.025 65.47200000000001 70.025 65.937V67.983C70.025 68.44800000000001 70.211 68.634 70.769 68.634C71.513 68.634 76.256 68.355 81.37100000000001 68.355C88.53200000000001 68.355 91.973 68.634 92.531 68.634C92.99600000000001 68.634 93.182 68.262 93.182 67.518V66.03C93.182 65.47200000000001 92.99600000000001 65.286 92.159 65.286H86.858C84.905 65.286 84.626 64.449 84.44 62.868C84.34700000000001 61.845000000000006 84.34700000000001 53.289 84.34700000000001 42.315000000000005V33.94500000000001H94.577C95.321 33.94500000000001 95.693 33.852000000000004 95.786 33.480000000000004L96.251 30.411C96.344 30.039 96.251 29.481 95.6 29.481H84.34700000000001V27.714000000000006C84.34700000000001 21.204000000000008 84.161 13.113000000000007 87.602 8.742000000000004C89.648 6.138000000000005 92.159 5.487000000000002 94.577 5.487000000000002C96.344 5.487000000000002 97.646 6.138000000000005 98.855 7.626000000000005C99.227 8.091000000000001 100.25 9.300000000000004 101.087 9.765000000000008C101.831 10.137000000000008 102.761 10.323000000000008 103.691 10.323000000000008C105.179 10.323000000000008 107.59700000000001 8.556000000000004 107.59700000000001 6.324000000000005C107.59700000000001 2.7900000000000063 103.505 1.1159999999999997 99.134 1.1159999999999997C93.926 1.1159999999999997 88.811 3.0690000000000026 83.882 8.463000000000001C80.255 12.555000000000007 77.65100000000001 18.6 77.65100000000001 27.807000000000002V29.481H72.257C71.513 29.481 71.23400000000001 29.574000000000005 71.141 30.132000000000005L70.769 32.922000000000004C70.583 33.75900000000001 70.769 33.94500000000001 71.23400000000001 33.94500000000001Z" fill="#48110C"/>
  <path d="M104.68610000000001 54.96300000000001C104.68610000000001 57.753 104.68610000000001 60.636 104.5931 63.426C104.5001 64.914 104.1281 65.286 103.10510000000001 65.286H98.5481C97.89710000000001 65.286 97.61810000000001 65.47200000000001 97.61810000000001 66.03V67.89C97.61810000000001 68.44800000000001 97.89710000000001 68.634 98.36210000000001 68.634C99.38510000000001 68.634 103.0121 68.355 108.40610000000001 68.355C112.3121 68.355 116.5901 68.634 117.3341 68.634C117.9851 68.634 118.17110000000001 68.355 118.17110000000001 67.70400000000001V66.123C118.17110000000001 65.565 117.9851 65.286 117.2411 65.286H112.9631C111.9401 65.286 111.6611 64.635 111.4751 62.868C111.38210000000001 61.845000000000006 111.38210000000001 58.497 111.38210000000001 54.870000000000005V44.733000000000004C111.38210000000001 37.014 111.38210000000001 31.155 111.5681 29.574000000000005C111.6611 28.923000000000002 111.5681 28.458000000000006 111.10310000000001 28.458000000000006C110.5451 28.458000000000006 110.0801 28.644000000000005 109.3361 29.016000000000005C105.80210000000001 30.969 102.2681 32.457 99.2921 33.57300000000001C98.8271 33.75900000000001 98.64110000000001 33.94500000000001 98.64110000000001 34.224000000000004V35.06100000000001C98.64110000000001 35.43300000000001 98.8271 35.61900000000001 99.47810000000001 35.712C104.1281 36.456 104.68610000000001 38.13 104.68610000000001 41.292ZM105.6161 17.949000000000005C109.52210000000001 17.949000000000005 111.1961 14.973000000000006 111.1961 12.462000000000003C111.1961 10.323000000000008 109.61510000000001 7.533000000000001 106.17410000000001 7.533000000000001C102.36110000000001 7.533000000000001 100.3151 10.323000000000008 100.3151 12.741000000000007C100.3151 15.810000000000002 103.47710000000001 17.949000000000005 105.6161 17.949000000000005Z" fill="#48110C"/>
  <path d="M160.36520000000002 39.339000000000006C160.36520000000002 37.014 158.0402 32.364000000000004 155.2502 30.504000000000005C153.0182 29.016000000000005 150.1352 28.458000000000006 147.3452 28.458000000000006C142.6952 28.458000000000006 137.3012 31.899 134.6042 35.24700000000001H134.4182L133.7672 29.574000000000005C133.6742 28.830000000000005 133.4882 28.458000000000006 133.0232 28.458000000000006C132.6512 28.458000000000006 132.0932 28.737000000000002 131.3492 29.109L123.3512 33.57300000000001C122.8862 33.75900000000001 122.5142 34.038000000000004 122.5142 34.50300000000001V34.968C122.5142 35.24700000000001 122.6072 35.526 123.2582 35.80500000000001L124.0022 36.17700000000001C126.3272 37.293000000000006 127.8152 38.87400000000001 127.8152 41.664V63.426C127.8152 65.007 127.1642 65.286 125.9552 65.286H123.2582C122.5142 65.286 122.3282 65.565 122.3282 66.123V67.797C122.3282 68.355 122.5142 68.634 122.9792 68.634C123.5372 68.634 126.5132 68.355 131.2562 68.355C136.1852 68.355 138.6962 68.634 139.3472 68.634C139.8122 68.634 139.9982 68.355 139.9982 67.797V66.21600000000001C139.9982 65.565 139.8122 65.286 139.0682 65.286H136.7432C134.7902 65.286 134.5112 64.72800000000001 134.5112 62.217000000000006V42.96600000000001C134.5112 41.199000000000005 134.7902 38.688 136.6502 36.642C139.4402 33.666000000000004 142.6952 33.01500000000001 144.1832 33.01500000000001C146.5082 33.01500000000001 148.74020000000002 33.01500000000001 150.9722 34.68900000000001C153.6692 36.642 153.6692 39.339000000000006 153.6692 43.059000000000005V55.33500000000001C153.6692 57.753 153.5762 60.729000000000006 153.4832 63.147000000000006C153.3902 64.821 152.6462 65.286 151.6232 65.286H148.9262C147.9962 65.286 147.7172 65.47200000000001 147.7172 66.123V67.611C147.7172 68.355 147.9032 68.634 148.4612 68.634C149.1122 68.634 152.0882 68.355 156.8312 68.355C162.1322 68.355 165.0152 68.634 165.6662 68.634C166.2242 68.634 166.4102 68.262 166.4102 67.611V66.123C166.4102 65.565 166.2242 65.286 165.3872 65.286H162.4112C161.2022 65.286 160.36520000000002 64.821 160.36520000000002 63.333000000000006Z" fill="#48110C"/>
  <path d="M200.60629999999998 29.853C197.81629999999998 29.016000000000005 194.4683 28.458000000000006 190.65529999999998 28.458000000000006C185.44729999999998 28.458000000000006 180.4253 30.411 176.79829999999998 34.31700000000001C172.4273 38.688 170.2883 44.361000000000004 170.2883 50.127C170.2883 56.358000000000004 171.40429999999998 60.543000000000006 176.1473 65.193C180.51829999999998 69.65700000000001 184.0523 69.471 187.1213 69.471C191.8643 69.471 197.81629999999998 67.425 200.79229999999998 64.449L202.0013 68.54100000000001C202.1873 69.19200000000001 202.6523 69.471 203.2103 69.28500000000001L213.71929999999998 65.751C214.2773 65.565 214.4633 65.286 214.3703 64.72800000000001L214.18429999999998 63.984C213.99829999999997 63.519000000000005 213.6263 63.426 212.3243 63.333000000000006C211.02229999999997 63.24 209.0693 62.682 208.23229999999998 61.752C207.48829999999998 60.822 207.3023 56.730000000000004 207.3023 53.289V32.736000000000004C207.3023 20.925000000000004 207.3953 7.440000000000005 207.6743 2.7900000000000063C207.76729999999998 1.7670000000000101 207.6743 1.1159999999999997 207.20929999999998 1.1159999999999997C206.55829999999997 1.1159999999999997 205.9073 1.3020000000000067 205.07029999999997 1.3950000000000102C203.30329999999998 1.7670000000000101 198.4673 2.603999999999999 194.84029999999998 3.347999999999999C194.2823 3.4410000000000025 194.09629999999999 3.6270000000000095 194.09629999999999 3.9990000000000094V5.580000000000005C194.09629999999999 5.952000000000005 194.1893 6.138000000000005 194.7473 6.231000000000002C199.9553 7.068000000000005 200.60629999999998 8.184000000000005 200.60629999999998 11.718000000000004ZM200.60629999999998 57.19500000000001C200.60629999999998 58.218 200.5133 58.962 200.04829999999998 60.357000000000006C199.11829999999998 62.775000000000006 195.11929999999998 65.47200000000001 189.91129999999998 65.47200000000001C184.51729999999998 65.47200000000001 177.2633 57.846000000000004 177.2633 47.337C177.2633 43.803000000000004 177.9143 38.87400000000001 181.54129999999998 34.968C183.95929999999998 32.457 187.1213 31.620000000000005 190.0043 31.620000000000005C195.4913 31.620000000000005 198.4673 34.13100000000001 199.7693 36.642C200.60629999999998 38.13 200.60629999999998 39.897000000000006 200.60629999999998 41.199000000000005Z" fill="#48110C"/>
  <path d="M247.63639999999998 43.617000000000004C249.12439999999998 43.617000000000004 250.2404 43.431000000000004 250.2404 42.129000000000005C250.2404 38.502 247.26439999999997 28.458000000000006 236.56939999999997 28.458000000000006C231.9194 28.458000000000006 227.2694 29.295 223.2704 33.38700000000001C218.3414 38.316 217.4114 44.547000000000004 217.4114 48.17400000000001C217.4114 54.684000000000005 218.24839999999998 58.125 221.50339999999997 62.868C224.94439999999997 67.89 230.80339999999998 69.471 236.1044 69.471C244.38139999999999 69.471 249.2174 63.054 250.89139999999998 59.334C251.35639999999998 58.31100000000001 251.17039999999997 58.032000000000004 250.89139999999998 57.93900000000001L249.68239999999997 57.288000000000004C249.40339999999998 57.19500000000001 249.0314 57.381 248.84539999999998 57.753C247.26439999999997 60.822 243.26539999999997 64.077 237.5924 64.077C230.15239999999997 64.077 224.38639999999998 57.19500000000001 224.38639999999998 48.081C224.38639999999998 45.94200000000001 224.4794 44.45400000000001 224.66539999999998 43.617000000000004ZM225.0374 40.827000000000005C226.8044 33.94500000000001 230.7104 31.248000000000005 234.80239999999998 31.248000000000005C240.8474 31.248000000000005 241.96339999999998 37.386 241.96339999999998 39.525000000000006C241.96339999999998 40.36200000000001 241.21939999999998 40.827000000000005 239.45239999999998 40.827000000000005Z" fill="#48110C"/>
  <path d="M47.178 160.312 42.209999999999994 150.322C40.26599999999999 146.326 38.267999999999994 144.922 35.78399999999999 144.328V144.166H35.35199999999999C41.72399999999999 143.626 48.36599999999999 141.358 48.36599999999999 132.988C48.36599999999999 125.86 43.50599999999999 122.08 34.48799999999999 122.08H18.179999999999993V123.376C23.201999999999995 123.376 23.957999999999995 124.348 23.957999999999995 127.642V159.718C23.957999999999995 163.012 23.201999999999995 163.984 18.179999999999993 163.984V165.28H35.78399999999999V163.984C30.761999999999993 163.984 30.005999999999993 163.012 30.005999999999993 159.718V144.328H31.46399999999999H32.59799999999999L40.751999999999995 160.636C42.74999999999999 165.172 44.153999999999996 165.28 49.175999999999995 165.28H53.495999999999995V163.984C50.25599999999999 163.984 48.74399999999999 163.444 47.178 160.312ZM31.46399999999999 142.114H30.005999999999993V125.26599999999999C31.139999999999993 124.672 32.651999999999994 124.29400000000001 34.27199999999999 124.29400000000001C38.80799999999999 124.29400000000001 42.15599999999999 127.102 42.15599999999999 132.88C42.15599999999999 140.764 35.72999999999999 142.168 31.46399999999999 142.114Z" fill="#48110C"/>
  <path d="M77.472 161.608C76.824 163.336 76.446 164.14600000000002 75.52799999999999 164.14600000000002C74.502 164.14600000000002 74.34 163.282 74.34 161.608V144.274C74.34 138.388 70.93799999999999 135.688 65.538 135.688C60.3 135.688 56.465999999999994 138.064 56.465999999999994 141.952C56.465999999999994 144.328 57.54599999999999 145.678 59.43599999999999 145.678C61.163999999999994 145.678 62.297999999999995 144.814 62.297999999999995 143.518C62.297999999999995 142.06 61.434 141.466 61.434 140.17000000000002C61.434 138.55 63.053999999999995 137.578 65.16 137.578C68.77799999999999 137.578 69.264 140.11599999999999 69.264 144.166V146.704L66.726 147.892C61.001999999999995 150.484 54.95399999999999 152.644 54.95399999999999 159.556C54.95399999999999 163.714 57.275999999999996 166.36 61.056 166.36C65.75399999999999 166.36 68.13 162.472 69.15599999999999 160.798H69.264V161.014C69.264 164.362 70.66799999999999 166.36 73.854 166.36C76.98599999999999 166.36 77.958 164.362 78.714 161.608ZM63.53999999999999 162.58C61.434 162.58 59.976 161.122 59.976 158.206C59.976 154.372 62.73 151.78 66.88799999999999 149.836L69.264 148.702V158.692C67.21199999999999 161.338 65.646 162.58 63.53999999999999 162.58Z" fill="#48110C"/>
  <path d="M95.886 135.688C92.37599999999999 135.688 90.05399999999999 138.766 88.64999999999999 141.304H88.488V136.44400000000002L87.732 135.688L83.898 137.632L79.848 139.63L80.442 140.764C83.466 139.252 83.41199999999999 139.954 83.41199999999999 143.464V159.718C83.41199999999999 163.174 82.87199999999999 163.984 79.57799999999999 163.984V165.28H94.15799999999999V163.984C89.244 163.984 88.488 163.174 88.488 159.718V144.382C90.27 141.25 91.51199999999999 139.576 93.13199999999999 139.576C93.672 139.576 93.996 139.846 94.374 140.494C94.85999999999999 141.358 95.508 142.006 97.02 142.006C98.856 142.006 99.88199999999999 140.602 99.88199999999999 138.982C99.88199999999999 136.984 98.208 135.688 95.886 135.688Z" fill="#48110C"/>
  <path d="M119.916 153.94C118.404 160.312 115.92 162.364 113.328 162.364C109.062 162.364 106.848 157.072 106.848 149.728V149.512H121.158C121.158 141.628 118.134 135.688 111.978 135.688C105.39 135.688 101.61 142.924 101.61 151.24C101.61 160.474 105.336 166.36 111.49199999999999 166.36C116.514 166.36 120.078 162.256 121.21199999999999 153.94ZM111.762 137.95600000000002C115.002 137.95600000000002 115.97399999999999 142.114 115.97399999999999 147.298H106.902C107.172 141.844 108.576 137.95600000000002 111.762 137.95600000000002Z" fill="#48110C"/>
  <path d="M152.046 142.168 147.564 157.828H147.402L142.92 142.168C141.94799999999998 138.82 141.94799999999998 138.064 145.134 138.064V136.768H132.82199999999997V138.064C135.08999999999997 138.064 136.06199999999998 138.766 137.034 142.168L144.21599999999998 166.522H147.34799999999998L154.26 142.168C155.23199999999997 138.82 156.14999999999998 138.064 158.47199999999998 138.064V136.768H149.56199999999998V138.064C153.01799999999997 138.064 153.01799999999997 138.82 152.046 142.168Z" fill="#48110C"/>
  <path d="M165.438 127.31800000000001C167.22 127.31800000000001 168.624 125.914 168.624 124.186C168.624 122.404 167.22 121.0 165.438 121.0C163.70999999999998 121.0 162.30599999999998 122.404 162.30599999999998 124.186C162.30599999999998 125.914 163.70999999999998 127.31800000000001 165.438 127.31800000000001ZM168.24599999999998 159.718V136.44400000000002L167.48999999999998 135.688L163.65599999999998 137.632L159.606 139.63L160.2 140.764C163.224 139.252 163.17 139.954 163.17 143.464V159.718C163.17 163.174 162.63 163.984 159.33599999999998 163.984V165.28H172.02599999999998V163.984C168.732 163.984 168.24599999999998 163.174 168.24599999999998 159.718Z" fill="#48110C"/>
  <path d="M182.33999999999997 136.44400000000002 181.58399999999997 135.688 177.74999999999997 137.632 173.7 139.63 174.29399999999998 140.764C177.31799999999998 139.252 177.26399999999998 139.954 177.26399999999998 143.464V159.718C177.26399999999998 163.174 176.724 163.984 173.42999999999998 163.984V165.28H185.85V163.984C182.826 163.984 182.33999999999997 163.174 182.33999999999997 159.718V143.518C184.284 140.98 186.552 139.144 188.658 139.144C190.76399999999998 139.144 191.628 140.656 191.628 143.464V159.718C191.628 163.174 191.142 163.984 188.118 163.984V165.28H200.53799999999998V163.984C197.24399999999997 163.984 196.70399999999998 163.174 196.70399999999998 159.718V143.464C196.70399999999998 138.496 194.92199999999997 135.688 190.926 135.688C187.362 135.688 184.55399999999997 138.28 182.50199999999998 141.25H182.33999999999997Z" fill="#48110C"/>
  <path d="M217.38599999999997 153.4C217.278 160.528 216.30599999999998 163.174 213.82199999999997 163.174C210.85199999999998 163.174 210.528 159.934 210.528 154.642V139.036H216.79199999999997V136.768H210.528V129.046H208.85399999999998C208.368 134.662 206.26199999999997 136.606 201.29399999999998 136.768V139.036H205.50599999999997V156.37C205.50599999999997 163.606 208.04399999999998 166.36 212.30999999999997 166.36C217.44 166.36 218.57399999999998 161.824 218.628 153.4Z" fill="#48110C"/>
  <path d="M242.766 161.608C242.118 163.336 241.73999999999998 164.14600000000002 240.82199999999997 164.14600000000002C239.796 164.14600000000002 239.634 163.282 239.634 161.608V144.274C239.634 138.388 236.23199999999997 135.688 230.832 135.688C225.594 135.688 221.76 138.064 221.76 141.952C221.76 144.328 222.83999999999997 145.678 224.73 145.678C226.458 145.678 227.59199999999998 144.814 227.59199999999998 143.518C227.59199999999998 142.06 226.72799999999998 141.466 226.72799999999998 140.17000000000002C226.72799999999998 138.55 228.34799999999998 137.578 230.45399999999998 137.578C234.07199999999997 137.578 234.558 140.11599999999999 234.558 144.166V146.704L232.01999999999998 147.892C226.296 150.484 220.248 152.644 220.248 159.556C220.248 163.714 222.57 166.36 226.35 166.36C231.04799999999997 166.36 233.42399999999998 162.472 234.45 160.798H234.558V161.014C234.558 164.362 235.962 166.36 239.148 166.36C242.27999999999997 166.36 243.25199999999998 164.362 244.00799999999998 161.608ZM228.83399999999997 162.58C226.72799999999998 162.58 225.26999999999998 161.122 225.26999999999998 158.206C225.26999999999998 154.372 228.02399999999997 151.78 232.182 149.836L234.558 148.702V158.692C232.50599999999997 161.338 230.94 162.58 228.83399999999997 162.58Z" fill="#48110C"/>
  <path d="M256.96799999999996 160.69C251.35199999999998 160.69 249.13799999999998 159.934 249.13799999999998 158.098C249.13799999999998 157.126 249.89399999999998 156.208 251.136 155.02C252.54 155.83 254.214 156.262 255.99599999999998 156.262C261.288 156.262 265.77 152.266 265.77 146.002C265.77 142.924 264.69 140.386 262.962 138.604L263.502 138.982C264.852 138.712 265.986 138.65800000000002 267.65999999999997 138.65800000000002C268.74 138.65800000000002 269.388 138.28 269.388 137.308C269.388 136.336 268.794 135.688 267.39 135.688C265.392 135.688 263.286 136.336 261.396 137.254C259.83 136.228 257.94 135.688 255.99599999999998 135.688C250.596 135.688 246.16799999999998 139.684 246.16799999999998 146.002C246.16799999999998 149.62 247.62599999999998 152.482 249.94799999999998 154.264C248.058 156.046 246.32999999999998 157.936 246.32999999999998 160.15C246.32999999999998 162.094 247.302 163.336 249.29999999999998 163.984C246.32999999999998 166.198 244.00799999999998 168.574 244.00799999999998 171.706C244.00799999999998 176.35 248.868 178.24 254.42999999999998 178.24C262.746 178.24 269.17199999999997 173.38 269.17199999999997 167.872C269.17199999999997 162.58 264.74399999999997 160.69 256.96799999999996 160.69ZM255.23999999999998 137.794C258.318 137.47 260.046 140.17000000000002 260.586 145.624C261.072 151.024 259.722 153.94 256.698 154.156C253.72799999999998 154.372 251.838 151.888 251.35199999999998 146.38C250.92 140.872 252.21599999999998 138.01 255.23999999999998 137.794ZM256.48199999999997 174.082C250.81199999999998 174.082 247.67999999999998 172.354 247.67999999999998 169.654C247.67999999999998 167.98 248.48999999999998 166.63 250.92 164.416C252.594 164.74 254.808 164.848 257.508 164.848C263.664 164.848 266.95799999999997 165.442 266.95799999999997 168.466C266.95799999999997 172.138 262.53 174.082 256.48199999999997 174.082Z" fill="#48110C"/>
  <path d="M289.098 153.94C287.586 160.312 285.10200000000003 162.364 282.51 162.364C278.244 162.364 276.03000000000003 157.072 276.03000000000003 149.728V149.512H290.34000000000003C290.34000000000003 141.628 287.31600000000003 135.688 281.16 135.688C274.572 135.688 270.79200000000003 142.924 270.79200000000003 151.24C270.79200000000003 160.474 274.51800000000003 166.36 280.67400000000004 166.36C285.696 166.36 289.26 162.256 290.394 153.94ZM280.944 137.95600000000002C284.184 137.95600000000002 285.156 142.114 285.156 147.298H276.084C276.35400000000004 141.844 277.75800000000004 137.95600000000002 280.944 137.95600000000002Z" fill="#48110C"/>
  <path d="M296.658 166.36C297.846 166.36 298.224 165.604 298.71000000000004 165.604C299.088 165.604 299.25 166.036 299.25 166.9C299.25 169.978 296.766 172.246 294.228 173.542V174.784C299.088 172.462 301.248 169.006 301.248 164.848C301.248 161.77 299.466 159.988 297.414 159.988C295.47 159.988 294.012 161.284 294.012 163.282C294.012 164.956 294.98400000000004 166.36 296.658 166.36Z" fill="#48110C"/>
  <path d="M86.338 222.108C85.69 223.836 85.312 224.64600000000002 84.394 224.64600000000002C83.368 224.64600000000002 83.206 223.782 83.206 222.108V204.774C83.206 198.888 79.804 196.188 74.404 196.188C69.166 196.188 65.33200000000001 198.564 65.33200000000001 202.452C65.33200000000001 204.828 66.412 206.178 68.302 206.178C70.03 206.178 71.164 205.314 71.164 204.018C71.164 202.56 70.3 201.966 70.3 200.67000000000002C70.3 199.05 71.92 198.078 74.02600000000001 198.078C77.644 198.078 78.13 200.61599999999999 78.13 204.666V207.204L75.592 208.392C69.86800000000001 210.984 63.82 213.144 63.82 220.056C63.82 224.214 66.142 226.86 69.922 226.86C74.62 226.86 76.99600000000001 222.972 78.022 221.298H78.13V221.514C78.13 224.862 79.534 226.86 82.72 226.86C85.852 226.86 86.824 224.862 87.58 222.108ZM72.406 223.08C70.3 223.08 68.842 221.622 68.842 218.706C68.842 214.872 71.596 212.28 75.754 210.336L78.13 209.202V219.192C76.078 221.838 74.512 223.08 72.406 223.08Z" fill="#48110C"/>
  <path d="M97.35399999999998 220.218V182.256L96.59799999999998 181.5L92.764 183.39L88.714 185.442L89.30799999999999 186.576C92.332 185.064 92.27799999999999 185.712 92.27799999999999 189.222V220.218C92.27799999999999 223.674 91.73799999999999 224.484 88.44399999999999 224.484V225.78H101.13399999999999V224.484C97.83999999999999 224.484 97.35399999999998 223.674 97.35399999999998 220.218Z" fill="#48110C"/>
  <path d="M111.44799999999998 220.218V182.256L110.69199999999998 181.5L106.85799999999999 183.39L102.80799999999999 185.442L103.40199999999999 186.576C106.42599999999999 185.064 106.37199999999999 185.712 106.37199999999999 189.222V220.218C106.37199999999999 223.674 105.83199999999998 224.484 102.53799999999998 224.484V225.78H115.22799999999998V224.484C111.93399999999998 224.484 111.44799999999998 223.674 111.44799999999998 220.218Z" fill="#48110C"/>
  <path d="M126.62199999999999 234.798C126.62199999999999 237.12 128.61999999999998 238.74 131.53599999999997 238.74C138.016 238.74 139.36599999999999 231.558 141.25599999999997 224.808L147.19599999999997 202.668C148.11399999999998 199.32 149.03199999999998 198.564 151.29999999999998 198.564V197.268H142.33599999999998V198.564C145.79199999999997 198.564 145.79199999999997 199.32 144.92799999999997 202.668L141.04 217.842L136.558 202.668C135.53199999999998 199.266 135.53199999999998 198.564 138.98799999999997 198.564V197.268H126.24399999999999V198.564C128.56599999999997 198.564 129.53799999999998 199.266 130.618 202.614L138.39399999999998 226.482C137.152 232.044 135.96399999999997 234.474 134.01999999999998 234.474C133.15599999999998 234.474 132.832 234.15 132.23799999999997 233.34C131.69799999999998 232.638 130.94199999999998 231.828 129.48399999999998 231.828C127.97199999999998 231.828 126.62199999999999 233.016 126.62199999999999 234.798Z" fill="#48110C"/>
  <path d="M165.28599999999997 226.86C172.79199999999997 226.86 177.43599999999998 220.272 177.43599999999998 211.524C177.43599999999998 202.83 172.79199999999997 196.188 165.28599999999997 196.188C157.72599999999997 196.188 153.08199999999997 202.83 153.08199999999997 211.524C153.08199999999997 220.272 157.72599999999997 226.86 165.28599999999997 226.86ZM166.42 224.592C162.26199999999997 224.916 159.724 220.704 158.914 212.118C158.212 203.478 159.99399999999997 198.888 164.09799999999998 198.51C168.25599999999997 198.132 170.84799999999998 202.344 171.60399999999998 210.984C172.30599999999998 219.624 170.52399999999997 224.214 166.42 224.592Z" fill="#48110C"/>
  <path d="M197.362 226.104 198.118 226.86 205.83999999999997 222.972 205.24599999999998 221.838C202.32999999999998 223.296 202.438 222.648 202.438 219.138V197.268L201.682 196.566L197.902 197.538L193.528 198.726L193.85199999999998 199.968C197.146 199.104 197.362 199.752 197.362 203.262V219.084C195.36399999999998 221.622 193.36599999999999 223.458 191.206 223.458C189.1 223.458 188.236 221.892 188.236 219.084V197.268L187.48 196.566L183.7 197.538L179.38 198.726L179.70399999999998 199.968C182.998 199.104 183.16 199.752 183.16 203.262V219.084C183.16 224.106 184.99599999999998 226.86 188.938 226.86C192.55599999999998 226.86 195.094 224.322 197.2 221.298H197.362Z" fill="#48110C"/>
  <path d="M223.39 196.188C219.88 196.188 217.558 199.266 216.154 201.804H215.992V196.94400000000002L215.236 196.188L211.402 198.132L207.352 200.13L207.946 201.264C210.97 199.752 210.916 200.454 210.916 203.964V220.218C210.916 223.674 210.376 224.484 207.082 224.484V225.78H221.662V224.484C216.748 224.484 215.992 223.674 215.992 220.218V204.882C217.774 201.75 219.016 200.076 220.636 200.076C221.176 200.076 221.5 200.346 221.878 200.994C222.364 201.858 223.012 202.506 224.524 202.506C226.35999999999999 202.506 227.386 201.102 227.386 199.482C227.386 197.484 225.712 196.188 223.39 196.188Z" fill="#48110C"/>
  <path d="M229.92399999999998 226.32H231.166C231.166 225.24 231.32799999999997 224.7 232.03 224.7C233.164 224.7 234.892 226.86 239.158 226.86C243.1 226.86 246.60999999999999 224.538 246.60999999999999 219.462C246.60999999999999 214.926 244.28799999999998 212.604 239.374 208.392C236.134 205.584 234.082 203.802 234.082 201.318C234.082 200.022 234.892 198.45600000000002 237.16 198.45600000000002C240.61599999999999 198.45600000000002 242.992 201.642 243.748 205.638H244.98999999999998V196.728H243.748C243.748 197.808 243.748 198.348 243.1 198.348C242.182 198.348 240.778 196.188 236.944 196.188C232.732 196.188 229.86999999999998 198.942 229.86999999999998 202.938C229.86999999999998 207.096 232.678 209.418 236.35 212.65800000000002C240.022 215.898 242.398 217.89600000000002 242.398 221.028C242.398 223.242 241.31799999999998 224.64600000000002 238.99599999999998 224.64600000000002C234.73 224.64600000000002 231.922 220.704 231.166 215.466H229.92399999999998Z" fill="#48110C"/>
  <path d="M253.03599999999997 226.86C254.76399999999998 226.86 256.222 225.456 256.222 223.674C256.222 221.946 254.76399999999998 220.488 253.03599999999997 220.488C251.254 220.488 249.84999999999997 221.946 249.84999999999997 223.674C249.84999999999997 225.456 251.254 226.86 253.03599999999997 226.86Z" fill="#48110C"/>
</svg>