<svg width="176" height="69" viewBox="0 0 176 69" fill="none" xmlns="http://www.w3.org/2000/svg">
<path d="M7.66547 32.9989H1.40222C0.934813 32.9989 0.65437 32.625 0.747851 32.0641L1.12178 29.1662C1.21526 28.6053 1.4957 28.5118 2.24355 28.5118H7.66547V27.0161C7.66547 17.7615 10.6569 12.1526 14.6766 7.75895C19.7246 2.15007 26.9226 0 31.5967 0C36.7382 0 40.9448 3.17837 40.9448 6.54369C41.0383 9.62858 38.6078 11.1243 36.5512 11.1243C34.4011 11.1243 32.812 10.0025 30.8488 7.47851C29.6336 5.79585 28.3248 4.67407 26.0813 4.67407C23.5573 4.67407 20.9398 5.70236 18.9767 7.94592C14.5831 12.7135 14.3961 20.3789 14.3961 26.7357V28.5118H27.9509C31.5032 28.5118 34.962 27.8574 38.2339 27.1096C39.0752 26.9226 39.5426 26.7357 40.1035 26.7357C40.7579 26.7357 40.7579 27.2031 40.6644 27.8574C40.3839 29.4466 40.3839 35.336 40.3839 43.7493V54.0322C40.3839 57.678 40.3839 61.0433 40.4774 62.0716C40.4774 63.7543 40.8514 64.5021 42.2536 64.5021H46.2733C46.9276 64.5021 47.1146 64.7826 47.1146 65.3435V67.0261C47.1146 67.587 46.9276 67.8675 46.3668 67.8675C45.6189 67.8675 43.2819 67.587 37.3925 67.587C31.8771 67.587 29.1662 67.8675 28.2314 67.8675C27.764 67.8675 27.4835 67.6805 27.4835 67.1196V65.25C27.4835 64.6891 27.764 64.5021 28.4183 64.5021H32.1576C33.0924 64.5021 33.5598 64.0347 33.6533 62.3521V40.01C33.6533 34.4946 32.438 32.9989 25.8009 32.9989H14.3961V41.4122C14.3961 52.443 14.3961 61.0433 14.5831 62.0716C14.5831 63.3804 14.7701 64.5021 16.2658 64.5021H20.4724C21.2203 64.5021 21.4072 64.6891 21.4072 65.25V66.9327C21.4072 67.4935 21.2203 67.8675 20.8463 67.8675C20.2855 67.8675 17.481 67.587 11.4047 67.587C5.14147 67.587 1.4957 67.8675 0.747851 67.8675C0.186963 67.8675 0 67.6805 0 67.2131V65.1565C0 64.6891 0.186963 64.5021 0.934813 64.5021H5.79584C7.19806 64.5021 7.57199 63.5673 7.66547 61.2303V32.9989Z" fill="#48110C"/>
<path d="M89.3284 38.4208V62.539C89.3284 64.0347 90.1698 64.5021 91.385 64.5021H94.3764C95.2178 64.5021 95.4047 64.7826 95.4047 65.3435V66.8392C95.4047 67.4935 95.2178 67.8675 94.6569 67.8675C94.0025 67.8675 91.1046 67.587 85.7761 67.587C81.0086 67.587 78.0172 67.8675 77.3628 67.8675C76.8019 67.8675 76.615 67.587 76.615 66.8392V65.3435C76.615 64.6891 76.8954 64.5021 77.8302 64.5021H80.5412C81.5695 64.5021 82.3173 64.0347 82.4108 62.3521C82.5043 59.9216 82.5978 56.9301 82.5978 54.4996V42.1601C82.5978 38.4208 82.5978 35.7099 79.8868 33.7468C77.6433 32.0641 75.3997 32.0641 73.0627 32.0641C71.567 32.0641 68.2951 32.7185 65.4907 35.7099C63.6211 37.7665 63.3406 40.2905 63.3406 42.0666V61.4173C63.3406 63.9413 63.6211 64.5021 65.5842 64.5021H67.9212C68.6691 64.5021 68.856 64.7826 68.856 65.437V67.0261C68.856 67.587 68.6691 67.8675 68.2017 67.8675C67.5473 67.8675 65.0233 67.587 60.0688 67.587C55.3012 67.587 52.3098 67.8675 51.7489 67.8675C51.2815 67.8675 51.0946 67.587 51.0946 67.0261V65.3435C51.0946 64.7826 51.2815 64.5021 52.0294 64.5021H54.7403C55.9556 64.5021 56.61 64.2217 56.61 62.6325V40.7579C56.61 37.9534 55.1143 36.3643 52.7772 35.2425L52.0294 34.8685C51.375 34.5881 51.2815 34.3077 51.2815 34.0272V33.5598C51.2815 33.0924 51.6555 32.812 52.1229 32.625L60.1623 28.1379C60.9101 27.764 61.471 27.4835 61.8449 27.4835C62.3123 27.4835 62.4993 27.8574 62.5928 28.6053L63.2471 34.3077H63.4341C66.1451 30.9423 71.567 27.4835 76.241 27.4835C79.0455 27.4835 81.9434 28.0444 84.187 29.5401C86.9914 31.4097 89.3284 36.0838 89.3284 38.4208Z" fill="#48110C"/>
<path d="M126.995 28.8857V10.6569C126.995 7.10459 126.34 5.98281 121.105 5.14147C120.544 5.04799 120.451 4.86103 120.451 4.48711V2.89792C120.451 2.524 120.638 2.33704 121.199 2.24355C124.844 1.4957 129.706 0.654372 131.482 0.280446C132.323 0.186966 132.977 0 133.632 0C134.099 0 134.193 0.654372 134.099 1.68266C133.819 6.35673 133.725 19.9115 133.725 31.7837V52.443C133.725 55.9019 133.912 60.015 134.66 60.9498C135.501 61.8847 137.464 62.4455 138.773 62.539C140.082 62.6325 140.456 62.726 140.643 63.1934L140.83 63.9412C140.923 64.5021 140.736 64.7826 140.175 64.9695L129.612 68.5218C129.051 68.7088 128.584 68.4284 128.397 67.774L127.182 63.6608C124.19 66.6522 118.207 68.7088 113.44 68.7088C110.355 68.7088 106.803 68.8958 102.409 64.4087C97.6414 59.7346 96.5196 55.5279 96.5196 49.2647C96.5196 43.4688 98.6697 37.7665 103.063 33.3728C106.709 29.4466 111.757 27.4835 116.992 27.4835C120.825 27.4835 124.19 28.0444 126.995 28.8857ZM126.995 56.3693V40.2905C126.995 38.9817 126.995 37.2056 126.153 35.7099C124.844 33.1859 121.853 30.6619 116.338 30.6619C113.44 30.6619 110.261 31.5032 107.831 34.0272C104.185 37.9534 103.531 42.9079 103.531 46.4602C103.531 57.0236 110.822 64.6891 116.244 64.6891C121.479 64.6891 125.499 61.9781 126.434 59.5476C126.901 58.1454 126.995 57.3975 126.995 56.3693Z" fill="#48110C"/>
<path d="M172.444 42.721H149.354C149.167 43.5623 149.073 45.058 149.073 47.2081C149.073 56.3693 154.869 63.2869 162.348 63.2869C168.05 63.2869 172.07 60.015 173.659 56.9301C173.846 56.5562 174.22 56.3693 174.5 56.4627L175.716 57.1171C175.996 57.2106 176.183 57.491 175.716 58.5193C174.033 62.2586 169.172 68.7088 160.852 68.7088C155.524 68.7088 149.634 67.1196 146.175 62.0716C142.904 57.3041 142.062 53.8453 142.062 47.3016C142.062 43.6558 142.997 37.3925 147.952 32.438C151.971 28.3249 156.645 27.4835 161.319 27.4835C172.07 27.4835 175.061 37.5795 175.061 41.2253C175.061 42.534 173.939 42.721 172.444 42.721ZM149.728 39.9165H164.217C165.994 39.9165 166.741 39.4491 166.741 38.6078C166.741 36.4577 165.62 30.288 159.543 30.288C155.43 30.288 151.504 32.9989 149.728 39.9165Z" fill="#48110C"/>
</svg>
