<svg width="305" height="135" viewBox="0 0 305 135" fill="none" xmlns="http://www.w3.org/2000/svg">
<path d="M34.447 47.5635C22.3991 47.5635 17.6028 42.8243 18.4593 36.4292C20.3436 23.3535 44.8391 3.31175 78.9843 3.31175C84.6371 3.31175 89.9473 3.99694 94.4582 5.36731C99.9968 2.05557 106.163 0 113.244 0C120.21 0 123.008 4.45373 122.265 9.76394C122.151 10.6775 121.923 11.534 121.637 12.3905L121.066 12.2763C121.352 11.4198 121.58 10.5633 121.694 9.76394C122.38 4.79632 119.81 0.57099 113.187 0.57099C107.134 0.57099 101.71 2.68366 96.7992 6.1096C104.165 8.85036 108.847 13.5325 107.934 19.9847C106.963 26.6653 97.6557 34.5449 83.0955 34.5449C82.1248 34.5449 81.097 34.5449 80.1263 34.4879C83.7806 36.3721 85.2081 40.4833 84.5229 45.3938C84.1803 48.0774 83.0955 51.0466 81.4396 53.9015C77.1572 61.2102 74.188 68.1192 73.4457 73.3723C72.0753 83.4218 77.4997 90.3308 86.864 90.3308H87.6634L87.6063 90.6734H86.3501C74.8732 90.6734 68.0213 83.8215 69.4488 73.3723C70.2482 67.7766 73.6741 60.525 78.4704 52.6454C80.4689 49.3907 81.8393 46.0219 82.239 42.9956C82.9813 37.9138 80.9828 33.974 74.8161 33.974L74.9303 33.4601C75.33 33.4601 76.4149 33.5172 77.4427 33.6314C79.4982 33.8598 81.3825 33.974 83.1526 33.974C94.9721 33.974 103.023 26.3227 103.937 19.9847C104.736 14.1035 101.253 9.76394 95.5431 7.08029C90.4041 10.9059 85.6649 16.159 81.097 21.9261C76.9859 27.065 73.3886 31.8613 69.4488 36.4863C59.7419 48.0774 47.9224 60.1824 32.5628 66.863C34.2757 67.2627 36.1029 67.6624 38.1585 68.0621L37.2449 68.6331C35.1322 68.1763 33.305 67.7195 31.5921 67.3198C24.2263 70.4032 16.004 72.2875 6.86817 72.2875C1.95765 72.2875 -0.212119 70.6887 0.0162772 68.9186C0.358872 66.6346 4.8126 63.951 13.1491 63.951C20.1723 63.951 24.6831 64.9788 30.6214 66.4062C45.5243 59.326 56.7157 46.3074 66.6509 34.0882C70.5908 29.2347 74.4164 24.3242 78.4704 19.585C83.0384 14.3319 87.7776 9.59265 93.202 6.1096C89.148 4.68213 84.1232 3.88274 78.8701 3.88274C47.123 3.88274 24.2834 23.5819 22.4562 36.4292C21.5997 42.4817 25.197 46.9926 34.5041 46.9926C48.9502 46.9926 62.5398 33.7456 63.7389 25.2378C64.2528 21.3551 62.3685 18.5001 56.7728 18.5001C48.0937 18.5001 39.5288 26.3798 35.1322 32.6607L34.6754 32.4323C39.2434 26.0372 47.9795 17.9291 56.8299 17.9291C64.0244 17.9291 66.5938 21.0125 66.0228 25.2378C64.7666 33.974 50.1493 47.5635 34.447 47.5635ZM6.98237 71.7165C15.4901 71.7165 22.9701 69.8893 29.7649 66.8059C24.7973 65.5498 20.2865 64.4649 13.0349 64.4649C6.58267 64.4649 2.52864 67.0914 2.24314 69.2041C2.01475 70.5745 3.49932 71.7165 6.98237 71.7165Z" fill="#48110C"/>
<path d="M105.575 40.6716H107.538C107.763 40.6716 107.819 40.9521 107.707 41.1765C106.641 43.4764 103.78 51.2179 103.499 52.1154C103.163 53.0691 100.807 60.0252 100.807 60.53C100.807 61.0349 101.087 61.2032 101.424 61.2032C102.097 61.2032 104.958 58.2862 105.351 57.7813C105.519 57.613 105.687 57.5008 105.799 57.6691L106.304 58.2301C106.473 58.3983 106.529 58.5105 106.416 58.6788C105.799 59.8008 100.919 64.5691 97.7214 64.5691C97.0482 64.5691 96.5434 64.3447 96.5434 63.6154C96.5434 62.7739 97.1043 61.0349 99.236 55.0886L98.9555 54.9764C96.5995 58.5666 90.9336 64.5691 86.9507 64.5691C85.6605 64.5691 83.9214 63.5032 83.9214 60.9788C83.9214 52.7886 93.1214 40.6716 99.9653 40.6716C102.321 40.6716 103.387 41.6813 103.948 42.5789L105.014 41.0643C105.182 40.8399 105.351 40.6716 105.575 40.6716ZM89.5312 61.5959C92.3361 61.5959 99.4604 52.5081 100.47 50.4325C101.256 48.8057 101.817 47.4033 101.817 45.7764C101.817 44.2618 101.256 42.4667 99.1799 42.4667C94.019 42.4667 88.0166 54.3032 88.0166 59.6325C88.0166 60.9227 88.5775 61.5959 89.5312 61.5959Z" fill="#48110C"/>
<path d="M111.862 64.0081H109.618C109.226 64.0081 109.001 63.7837 109.114 63.5032L112.255 54.4154C113.265 51.274 115.004 45.3838 115.004 44.5984C115.004 44.0935 114.555 43.7569 114.05 43.7569C112.928 43.7569 110.404 46.2813 109.618 47.235C109.506 47.4033 109.282 47.3472 109.17 47.235L108.609 46.674C108.496 46.5618 108.496 46.3935 108.609 46.2252C109.787 44.4862 113.153 40.6716 116.967 40.6716C118.089 40.6716 118.538 41.6252 118.538 42.635C118.594 43.7008 117.64 46.8423 116.518 50.6008L116.799 50.713C118.314 47.5716 122.801 40.6716 125.943 40.6716C127.57 40.6716 128.579 41.6813 128.579 43.196C128.579 44.6545 127.457 45.7764 126.392 45.7764C125.887 45.7764 125.438 45.6642 124.989 45.2155C124.54 44.7667 124.26 44.5423 123.531 44.5423C122.016 44.5423 118.874 49.3667 116.631 53.0691C115.957 54.1349 115.284 55.4252 114.443 57.9496L112.592 63.6154C112.479 64.0081 112.311 64.0081 111.862 64.0081Z" fill="#48110C"/>
<path d="M131.571 64.5691C127.925 64.5691 126.354 62.7739 126.354 59.0715C126.354 54.3593 129.439 48.4691 133.534 44.4301C135.329 42.635 138.359 40.6716 141.051 40.6716C143.239 40.6716 144.249 42.2984 144.249 43.6447C144.249 46.3935 142.173 49.3106 139.032 50.9374C136.003 52.452 132.973 53.0691 130.898 53.2374C130.617 53.9106 130.168 55.7618 130.168 58.3983C130.168 60.9227 132.02 61.9325 133.086 61.9325C135.834 61.9325 138.303 59.8569 139.481 57.9496C139.593 57.7813 139.761 57.6691 139.985 57.8935L140.603 58.3983C140.883 58.5666 140.883 58.7349 140.659 58.9032C139.256 60.8666 135.89 64.5691 131.571 64.5691ZM138.864 43.1399C135.273 43.1399 131.795 49.5911 131.346 51.6106C133.31 51.7789 140.659 49.4228 140.659 45.2716C140.659 44.1496 140.098 43.1399 138.864 43.1399Z" fill="#48110C"/>
<path d="M162.935 44.2057H160.018C158.223 44.2057 156.989 45.4399 156.933 47.1228C156.989 48.1325 157.662 48.4691 158.167 48.7496C158.559 48.974 159.401 49.535 159.401 50.4325C159.401 51.3301 158.784 52.2837 157.325 52.2837C156.259 52.2837 154.745 51.4984 154.745 49.0862C154.745 46.8984 156.147 44.5423 156.933 43.6447C158.055 42.4106 159.289 40.9521 163.328 40.9521C169.05 40.9521 169.723 40.6716 170.34 40.6716C171.069 40.6716 171.63 41.0082 171.069 41.7374C169.891 43.196 164.45 50.7691 164.45 56.3788C164.45 60.1935 166.469 61.5959 168.433 61.5959C173.257 61.5959 178.137 54.0228 178.137 48.3569C178.137 47.4594 178.081 46.3374 177.689 45.4399C177.24 44.4301 176.847 43.813 176.847 43.1399C176.847 41.6252 177.745 40.6716 179.372 40.6716C180.942 40.6716 181.559 42.2984 181.559 43.6447C181.559 46.3374 180.325 51.9472 177.857 56.2106C175.333 60.5861 170.789 64.5691 166.189 64.5691C163.384 64.5691 160.635 62.83 160.635 58.791C160.635 53.574 165.291 46.674 168.545 42.8594L168.152 42.6911C166.974 43.7008 164.001 44.2057 162.935 44.2057Z" fill="#48110C"/>
<path d="M184.219 64.5691C183.658 64.513 183.265 64.0642 183.265 63.1666C183.265 61.8764 184.219 59.2959 186.575 53.013L188.202 48.6374C188.763 47.1228 189.212 46.0008 189.212 45.3277C189.212 44.8228 188.875 44.5984 188.426 44.5984C187.473 44.5984 184.836 47.6277 183.939 48.5252C183.714 48.7496 183.49 48.7496 183.322 48.5813L182.873 48.0764C182.648 47.9081 182.536 47.7959 182.705 47.5716C182.929 47.235 188.651 40.5033 192.241 40.6716C192.914 40.6716 193.587 41.1204 193.587 42.074C193.587 43.0838 192.69 45.6082 191.68 48.3008L188.426 56.8276C187.641 58.9032 187.417 60.1374 187.417 60.53C187.417 61.0349 187.585 61.3715 188.034 61.4837C189.212 61.2593 192.241 58.0618 192.522 57.5569C192.634 57.3886 192.858 57.3886 193.139 57.6691L193.587 58.0618C193.812 58.3422 193.868 58.4544 193.7 58.7349C193.363 59.1837 188.875 64.5691 184.219 64.5691ZM193.251 33.1545C190.783 33.1545 190.334 31.0789 190.334 30.4619C190.334 28.9472 191.512 27.657 193.251 27.657C195.214 27.657 196.224 29.0594 196.224 30.3497C196.224 31.1911 195.551 33.1545 193.251 33.1545Z" fill="#48110C"/>
<path d="M199.147 64.0081H196.959C196.342 64.0081 196.23 63.8959 196.342 63.5032L200.325 53.1252C201.672 49.6472 203.242 45.6081 203.242 44.6545C203.242 44.0935 203.018 43.7008 202.401 43.7008C201.335 43.7008 198.642 46.3935 197.689 47.4594C197.52 47.6277 197.352 47.6277 197.128 47.4033L196.623 46.8984C196.398 46.674 196.342 46.5618 196.511 46.3374C197.352 45.3277 201.503 40.6716 205.542 40.6716C206.832 40.6716 207.337 41.6252 207.337 42.3545C207.337 44.0935 204.925 49.4228 204.476 50.713L204.701 50.8252C206.384 48.1325 212.498 40.6716 217.491 40.6716C219.174 40.6716 220.296 41.513 220.296 42.9716C220.296 45.4399 219.006 48.3569 217.154 52.9008C215.64 56.6032 214.293 59.7447 214.293 60.6422C214.293 60.9788 214.518 61.3715 214.967 61.3715C215.808 61.3715 218.276 59.2959 219.006 58.5105C219.23 58.3423 219.454 58.3983 219.623 58.6227L220.015 59.0715C220.24 59.2959 220.296 59.4081 220.071 59.6886C219.398 60.5861 214.854 64.5691 211.096 64.5691C210.367 64.5691 209.75 64.2886 209.75 63.4471C209.75 62.3813 211.769 57.9496 213.508 53.1252C214.293 50.9374 216.313 46.2813 216.313 45.0472C216.313 44.2618 215.92 43.7569 214.911 43.7569C212.723 43.7569 207.169 48.9179 204.701 52.9008C203.691 54.5276 202.793 55.9862 201.335 59.913L199.933 63.6715C199.82 63.8959 199.708 64.0081 199.147 64.0081Z" fill="#48110C"/>
<path d="M222.739 60.5861L229.807 44.2618H225.881C225.544 44.2618 225.432 44.1496 225.544 43.813L225.993 42.5789C226.105 42.2984 226.273 42.1862 226.61 42.1862H230.649L233.566 35.6789C233.846 35.1179 234.015 35.0057 234.464 34.8375C235.081 34.6692 236.539 34.1082 236.988 33.8838C237.324 33.7155 237.605 33.5472 237.829 33.5472C238.166 33.5472 238.278 33.8838 237.885 34.6692L234.183 42.1862H239.905C240.185 42.1862 240.298 42.3545 240.129 42.8033L239.624 43.9813C239.568 44.1496 239.344 44.2618 239.12 44.2618H233.398L227.956 56.8837C227.283 58.4544 226.666 59.8569 226.666 60.4739C226.666 61.091 226.89 61.4276 227.395 61.4276C229.022 61.4276 232.668 58.2301 233.005 57.8374C233.173 57.613 233.342 57.6691 233.51 57.8374L234.127 58.5105C234.295 58.6788 234.295 58.791 234.183 59.0154C233.454 59.913 228.237 64.5691 223.917 64.5691C222.515 64.5691 222.122 64.0081 222.122 63.2227C222.122 62.3813 222.403 61.4276 222.739 60.5861Z" fill="#48110C"/>
<path d="M257.901 40.6716H259.865C260.089 40.6716 260.145 40.9521 260.033 41.1765C258.967 43.4764 256.106 51.2179 255.826 52.1154C255.489 53.0691 253.133 60.0252 253.133 60.53C253.133 61.0349 253.413 61.2032 253.75 61.2032C254.423 61.2032 257.284 58.2862 257.677 57.7813C257.845 57.613 258.013 57.5008 258.126 57.6691L258.631 58.2301C258.799 58.3983 258.855 58.5105 258.743 58.6788C258.126 59.8008 253.245 64.5691 250.048 64.5691C249.374 64.5691 248.87 64.3447 248.87 63.6154C248.87 62.7739 249.431 61.0349 251.562 55.0886L251.282 54.9764C248.926 58.5666 243.26 64.5691 239.277 64.5691C237.987 64.5691 236.248 63.5032 236.248 60.9788C236.248 52.7886 245.448 40.6716 252.292 40.6716C254.648 40.6716 255.713 41.6813 256.274 42.5789L257.34 41.0643C257.509 40.8399 257.677 40.6716 257.901 40.6716ZM241.857 61.5959C244.662 61.5959 251.787 52.5081 252.796 50.4325C253.582 48.8057 254.143 47.4033 254.143 45.7764C254.143 44.2618 253.582 42.4667 251.506 42.4667C246.345 42.4667 240.343 54.3032 240.343 59.6325C240.343 60.9227 240.904 61.5959 241.857 61.5959Z" fill="#48110C"/>
<path d="M266.208 80.669C260.374 80.669 254.708 77.3592 254.708 73.3202C254.708 69.169 261.44 66.4203 264.189 65.2422C262.562 64.0642 262.057 63.0544 262.057 61.9886C262.057 60.9227 263.067 59.9691 266.825 57.8374C265.31 57.4447 262.45 55.4252 262.45 51.3862C262.45 47.1789 266.152 40.6716 272.379 40.6716C275.184 40.6716 276.642 42.4667 277.147 43.3082C277.764 42.6911 279.84 41.2326 281.915 41.2326C283.766 41.2326 284.271 42.7472 284.271 43.4204C284.271 44.0374 283.879 45.1594 282.476 45.1594C281.41 45.1594 280.962 44.7106 280.625 44.3179C280.345 44.0374 279.896 43.9252 279.559 43.9252C279.054 43.9252 278.157 44.3179 277.932 44.7106C278.157 45.2716 278.381 47.0106 278.381 47.852C278.381 50.5447 276.81 56.8276 270.359 57.9496C269.35 58.1179 268.845 58.2301 268.676 58.3422C267.61 58.791 265.759 60.0813 265.759 61.0349C265.759 61.652 266.32 62.2691 266.713 62.5496C267.667 63.2227 270.359 64.9056 274.006 67.3178C277.259 69.4495 278.157 71.3007 278.157 73.3763C278.157 74.2739 277.203 80.669 266.208 80.669ZM258.579 72.9276C258.579 76.7983 263.571 78.93 267.33 78.93C271.145 78.93 274.342 77.5836 274.342 74.4422C274.342 71.9739 271.986 70.4593 270.584 69.5056L265.647 66.3081C261.047 68.1593 258.579 70.291 258.579 72.9276ZM268.676 56.6593C272.771 56.6593 274.791 49.8716 274.791 45.8325C274.791 43.2521 273.781 42.074 272.267 42.074C268.901 42.074 266.04 48.6374 266.04 52.8447C266.04 55.3691 266.993 56.6593 268.676 56.6593Z" fill="#48110C"/>
<path d="M287.007 64.5691C283.36 64.5691 281.79 62.7739 281.79 59.0715C281.79 54.3593 284.875 48.4691 288.97 44.4301C290.765 42.635 293.794 40.6716 296.487 40.6716C298.675 40.6716 299.685 42.2984 299.685 43.6447C299.685 46.3935 297.609 49.3106 294.468 50.9374C291.438 52.452 288.409 53.0691 286.333 53.2374C286.053 53.9106 285.604 55.7618 285.604 58.3983C285.604 60.9227 287.455 61.9325 288.521 61.9325C291.27 61.9325 293.738 59.8569 294.916 57.9496C295.029 57.7813 295.197 57.6691 295.421 57.8935L296.038 58.3983C296.319 58.5666 296.319 58.7349 296.094 58.9032C294.692 60.8666 291.326 64.5691 287.007 64.5691ZM294.299 43.1399C290.709 43.1399 287.231 49.5911 286.782 51.6106C288.746 51.7789 296.094 49.4228 296.094 45.2716C296.094 44.1496 295.533 43.1399 294.299 43.1399Z" fill="#48110C"/>
<path d="M296.978 71.1324C296.697 71.1324 296.417 71.2446 296.305 70.6276C296.249 70.0666 296.473 69.9544 296.922 69.8422C298.324 69.4495 301.41 67.5983 301.41 65.0178C301.41 63.6715 300.961 63.1105 300.063 62.1569C299.783 61.8764 298.492 60.9788 298.492 59.6325C298.492 58.2862 299.39 57.052 300.961 57.052C303.541 57.052 305 60.53 305 62.4935C305 69.1129 298.044 71.1324 296.978 71.1324Z" fill="#48110C"/>
<path d="M104.373 94.7655H106.337C106.561 94.7655 106.617 95.0459 106.505 95.2703C105.439 97.5703 102.578 105.312 102.297 106.209C101.961 107.163 99.6048 114.119 99.6048 114.624C99.6048 115.129 99.8853 115.297 100.222 115.297C100.895 115.297 103.756 112.38 104.149 111.875C104.317 111.707 104.485 111.595 104.597 111.763L105.102 112.324C105.271 112.492 105.327 112.604 105.215 112.773C104.597 113.895 99.717 118.663 96.5195 118.663C95.8463 118.663 95.3414 118.439 95.3414 117.709C95.3414 116.868 95.9024 115.129 98.0341 109.182L97.7536 109.07C95.3975 112.661 89.7317 118.663 85.7488 118.663C84.4585 118.663 82.7195 117.597 82.7195 115.073C82.7195 106.882 91.9195 94.7655 98.7634 94.7655C101.119 94.7655 102.185 95.7752 102.746 96.6728L103.812 95.1581C103.98 94.9338 104.149 94.7655 104.373 94.7655ZM88.3293 115.69C91.1341 115.69 98.2585 106.602 99.2682 104.526C100.054 102.9 100.615 101.497 100.615 99.8703C100.615 98.3557 100.054 96.5606 97.978 96.5606C92.817 96.5606 86.8146 108.397 86.8146 113.726C86.8146 115.017 87.3756 115.69 88.3293 115.69Z" fill="#48110C"/>
<path d="M108.136 110.978L117.953 85.6777C118.795 83.546 118.738 82.1436 117.112 82.1436H115.485C115.092 82.1436 115.036 81.9192 115.148 81.6387L115.485 80.6289C115.597 80.2923 115.709 80.2362 116.046 80.2362H123.002C123.507 80.2362 123.675 80.5728 123.507 81.0777L111.838 110.753C111.334 112.043 109.987 115.129 111.165 115.129C112.063 115.129 114.643 112.941 115.316 112.212C115.541 111.987 115.653 112.043 115.821 112.212L116.438 112.885C116.551 112.997 116.607 113.221 116.382 113.446C116.102 113.895 110.885 118.663 107.295 118.663C106.565 118.663 106.06 118.326 106.06 117.036C106.06 116.195 107.463 112.661 108.136 110.978Z" fill="#48110C"/>
<path d="M120.136 110.978L129.953 85.6777C130.794 83.546 130.738 82.1436 129.111 82.1436H127.484C127.092 82.1436 127.036 81.9192 127.148 81.6387L127.484 80.6289C127.597 80.2923 127.709 80.2362 128.045 80.2362H135.001C135.506 80.2362 135.675 80.5728 135.506 81.0777L123.838 110.753C123.333 112.043 121.987 115.129 123.165 115.129C124.062 115.129 126.643 112.941 127.316 112.212C127.54 111.987 127.653 112.043 127.821 112.212L128.438 112.885C128.55 112.997 128.606 113.221 128.382 113.446C128.101 113.895 122.884 118.663 119.294 118.663C118.565 118.663 118.06 118.326 118.06 117.036C118.06 116.195 119.462 112.661 120.136 110.978Z" fill="#48110C"/>
<path d="M142.091 103.18L141.305 102.843C141.193 102.787 141.137 102.619 141.249 102.339C141.586 101.665 144.559 94.7655 147.981 94.7655C149.72 94.7655 150.337 96.1679 150.786 101.104C151.347 107.5 151.739 114.063 151.852 117.709L152.076 117.653C153.647 115.129 157.013 108.453 157.798 105.761C158.078 104.807 158.639 103.292 158.639 100.88C158.639 100.263 158.527 99.2532 158.359 98.8045C158.135 98.2996 157.742 97.5142 157.742 96.785C157.742 95.8874 158.247 94.7655 160.042 94.7655C161.556 94.7655 162.286 96.1679 162.286 97.5703C162.286 101.217 160.154 105.929 158.527 109.463C156.059 114.848 150.169 124.89 145.288 129.658C143.774 131.229 140.071 134.763 136.761 134.763C134.574 134.763 133.62 133.417 133.62 132.126C133.62 130.724 134.854 129.882 135.864 129.826C136.818 129.77 137.322 130.219 137.939 130.724C138.332 131.06 138.893 131.397 139.342 131.397C139.903 131.397 140.857 131.06 141.978 130.219C145.064 127.919 147.252 124.665 148.149 122.646C148.598 121.58 148.654 120.346 148.598 119.504C148.486 118.214 147.42 102.956 146.803 100.039C146.578 98.9728 146.298 98.4679 145.849 98.4679C144.839 98.4679 143.044 101.778 142.596 103.012C142.483 103.236 142.259 103.236 142.091 103.18Z" fill="#48110C"/>
<path d="M167.638 118.663C164.553 118.663 161.86 115.69 161.86 111.426C161.86 104.358 167.189 94.7655 174.65 94.7655C178.409 94.7655 180.653 97.5142 180.653 101.329C180.653 107.5 175.772 118.663 167.638 118.663ZM166.797 115.97C172.631 115.97 178.409 104.19 178.409 100.487C178.465 98.7484 177.455 97.3459 175.604 97.3459C173.248 97.3459 170.275 99.4776 167.47 104.022C165.563 107.051 164.216 110.473 164.216 113.109C164.216 114.904 165.45 115.97 166.797 115.97Z" fill="#48110C"/>
<path d="M203.342 95.3264H205.642C206.147 95.3264 206.259 95.4947 206.147 95.8313L201.827 107.5C200.201 111.875 199.471 114.456 199.471 114.792C199.471 115.297 199.527 115.297 199.92 115.465C200.761 115.465 203.847 112.661 204.296 111.987C204.408 111.819 204.632 111.763 204.8 111.987L205.361 112.548C205.53 112.717 205.53 112.829 205.361 113.053C205.193 113.278 199.976 118.663 196.105 118.663C195.32 118.663 195.04 118.046 195.04 117.373C195.04 116.7 197.901 109.687 198.63 107.78L198.293 107.612C195.937 111.034 189.991 118.663 184.437 118.663C183.315 118.663 182.418 117.709 182.362 116.363C182.418 114.568 184.157 111.09 186.344 105.873C187.803 102.395 189.093 99.7581 189.093 98.7484C189.093 98.2435 188.701 97.963 188.196 97.963C187.186 97.963 184.381 100.487 183.82 101.161C183.652 101.329 183.484 101.329 183.315 101.161L182.81 100.656C182.642 100.543 182.642 100.375 182.866 100.151C183.259 99.6459 187.915 94.7655 191.505 94.7655C192.627 94.7655 193.132 95.8874 193.132 96.785C193.132 98.1874 191.786 101.497 189.486 106.49C187.971 109.8 186.513 113.39 186.513 114.624C186.513 115.241 186.905 115.578 187.466 115.578C190.44 115.578 196.386 108.229 198.013 105.873C199.079 104.302 199.976 102.787 200.593 101.104L202.557 95.7191C202.669 95.3825 202.949 95.3264 203.342 95.3264Z" fill="#48110C"/>
<path d="M209.926 118.102H207.683C207.29 118.102 207.065 117.878 207.178 117.597L210.319 108.509C211.329 105.368 213.068 99.4776 213.068 98.6923C213.068 98.1874 212.619 97.8508 212.114 97.8508C210.992 97.8508 208.468 100.375 207.683 101.329C207.57 101.497 207.346 101.441 207.234 101.329L206.673 100.768C206.561 100.656 206.561 100.487 206.673 100.319C207.851 98.5801 211.217 94.7655 215.031 94.7655C216.153 94.7655 216.602 95.7191 216.602 96.7289C216.658 97.7947 215.704 100.936 214.582 104.695L214.863 104.807C216.378 101.665 220.865 94.7655 224.007 94.7655C225.634 94.7655 226.643 95.7752 226.643 97.2898C226.643 98.7484 225.521 99.8703 224.456 99.8703C223.951 99.8703 223.502 99.7581 223.053 99.3093C222.604 98.8606 222.324 98.6362 221.595 98.6362C220.08 98.6362 216.939 103.461 214.695 107.163C214.022 108.229 213.348 109.519 212.507 112.043L210.656 117.709C210.543 118.102 210.375 118.102 209.926 118.102Z" fill="#48110C"/>
<path d="M227.622 118.663C224.368 118.663 222.349 117.373 222.349 115.521C222.349 114.736 223.078 113.67 224.256 113.67C225.49 113.67 226.22 114.512 226.556 115.465C226.893 116.419 227.173 117.036 228.576 117.036C230.203 117.036 231.717 115.578 231.717 113.614C231.717 111.202 230.034 108.902 229.305 107.107C228.912 106.153 227.622 104.19 227.678 101.609C227.678 98.3557 230.763 94.7655 234.746 94.7655C236.429 94.7655 238.729 95.4386 238.729 97.6264C238.729 98.6362 237.832 99.4215 236.99 99.4215C236.317 99.4215 235.476 99.0289 235.083 98.0752C234.802 97.402 234.746 96.5045 233.624 96.5045C232.503 96.5045 230.876 98.0191 230.876 100.039C230.876 102.114 232.559 104.47 232.895 105.256C233.232 105.929 235.027 108.678 235.027 111.651C235.027 116.026 231.493 118.663 227.622 118.663Z" fill="#48110C"/>
<path d="M241.195 118.663C239.456 118.663 238.221 117.373 238.221 115.634C238.221 114.512 239.119 112.717 241.138 112.717C243.663 112.717 244.336 114.961 244.336 115.634C244.336 117.092 243.046 118.663 241.195 118.663Z" fill="#48110C"/>
</svg>
