<svg width="299" height="119" viewBox="0 0 299 119" fill="none" xmlns="http://www.w3.org/2000/svg">
<g clip-path="url(#clip0_498_4058)">
<path d="M189.29 63.111C175.704 63.5532 167.262 65.988 167.262 74.8755C167.262 80.6291 171.881 86.8665 183.606 86.8665C199.327 86.8665 207.718 78.3565 207.718 64.3989L207.719 62.8637C202.208 62.8637 195.411 62.9115 189.29 63.111ZM222.703 81.5518C222.703 85.8822 222.829 90.1567 223.21 94.0059H209.272C208.901 90.8364 208.765 87.6871 208.765 84.6324C201.229 93.8315 192.267 96.4761 179.833 96.4761C161.392 96.4761 151.518 86.7958 151.518 75.599C151.518 59.3823 164.947 53.6646 188.262 53.1341C194.637 52.9896 201.799 52.9681 207.719 52.9681L207.718 51.3836C207.718 40.5271 200.709 36.0634 188.562 36.0634C179.545 36.0634 172.899 39.7694 172.214 46.1733H156.471C158.137 30.2062 175.029 26.168 189.881 26.168C207.674 26.168 222.703 32.4551 222.703 51.1452L222.703 81.5518Z" fill="#141414"/>
<path d="M59.6913 55.1923C59.1099 41.2725 48.9932 36.0634 38.1808 36.0634C26.5215 36.0634 17.2129 41.9229 15.5823 55.1923H59.6913ZM15.2593 65.0879C16.0679 78.5939 25.4461 86.5819 38.3413 86.5819C47.2756 86.5819 55.2228 82.9666 57.8838 75.102H73.3374C70.3319 91.0596 53.2584 96.4761 38.5628 96.4761C11.8423 96.4761 0 81.8616 0 62.1528C0 40.4569 12.2487 26.168 38.8066 26.168C59.9455 26.168 75.4341 37.1546 75.4341 61.1346V65.0879H15.2593Z" fill="#141414"/>
<path d="M113.869 86.2985C127.794 86.2985 137.323 76.3444 137.323 61.3231C137.323 46.3031 127.794 36.3477 113.869 36.3477C100.022 36.3477 90.4145 46.3031 90.4145 61.3231C90.4145 76.3444 100.022 86.2985 113.869 86.2985ZM75.4339 0H90.4145L90.413 37.3783C97.7555 28.6898 107.871 26.1672 117.828 26.1672C134.523 26.1672 153.066 37.3551 153.066 61.5119C153.066 81.7403 138.319 96.4753 117.55 96.4753C106.679 96.4753 96.4466 92.6024 90.136 84.9293C90.136 87.994 89.9637 91.083 89.6261 94.0051H74.9238C75.1795 89.2809 75.4338 83.3988 75.4338 78.6392L75.4339 0Z" fill="#141414"/>
<path d="M299.001 28.6426L252.673 119H235.897L249.217 93.9101L214.352 28.6426H231.881L257.537 79.6367L283.12 28.6426H299.001Z" fill="#141414"/>
</g>
<defs>
<clipPath id="clip0_498_4058">
<rect width="299" height="119" fill="#141414"/>
</clipPath>
</defs>
</svg>
