<svg width="350" height="170" viewBox="25 205 350 170" fill="none" xmlns="http://www.w3.org/2000/svg">
<path d="M51.897 218L66.7646 227.431V247.441H57.1374V234.291H46.6222V247.441H37V227.431L51.897 218Z" stroke="#48110C" stroke-width="1.5" stroke-linecap="round" stroke-linejoin="round"/>
<path d="M104.896 238.51C110.56 238.51 115.151 233.919 115.151 228.255C115.151 222.591 110.56 218 104.896 218C99.232 218 94.6406 222.591 94.6406 228.255C94.6406 233.919 99.232 238.51 104.896 238.51Z" stroke="#48110C" stroke-width="1.5" stroke-linecap="round" stroke-linejoin="round"/>
<path d="M112.129 235.475L124.082 247.442" stroke="#48110C" stroke-width="1.5" stroke-linecap="round" stroke-linejoin="round"/>
<path d="M212.865 225.439L238.277 225.449C238.277 225.449 240.211 242.162 240.211 244.802C240.211 247.177 238.292 249.414 235.211 249.414H216.413C213.449 249.414 210.883 247.27 210.883 245.189C210.883 243.109 212.865 225.444 212.865 225.444V225.439Z" stroke="#48110C" stroke-width="1.5" stroke-linecap="round" stroke-linejoin="round"/>
<path d="M232.508 231.592V224.845C232.508 221.067 229.442 218 225.663 218C221.885 218 218.818 221.067 218.818 224.845V231.592" stroke="#48110C" stroke-width="1.5" stroke-linecap="round" stroke-linejoin="round"/>
<path d="M299.446 233.702C299.446 238.039 297.69 241.965 294.849 244.806C292.008 247.652 288.082 249.403 283.745 249.403C279.407 249.403 275.482 247.647 272.641 244.806C269.795 241.965 268.043 238.039 268.043 233.702C268.043 225.031 275.074 218 283.745 218C292.415 218 299.446 225.031 299.446 233.702Z" stroke="#48110C" stroke-width="1.5" stroke-linecap="round" stroke-linejoin="round"/>
<path d="M283.739 235.033C286.281 235.033 288.342 232.973 288.342 230.431C288.342 227.889 286.281 225.828 283.739 225.828C281.197 225.828 279.137 227.889 279.137 230.431C279.137 232.973 281.197 235.033 283.739 235.033Z" stroke="#48110C" stroke-width="1.5" stroke-linecap="round" stroke-linejoin="round"/>
<path d="M294.847 244.807C292.006 247.653 288.08 249.404 283.743 249.404C279.405 249.404 275.48 247.648 272.639 244.807C275.48 241.961 279.405 240.209 283.743 240.209C288.08 240.209 292.006 241.966 294.847 244.807Z" stroke="#48110C" stroke-width="1.5" stroke-linecap="round" stroke-linejoin="round"/>
<path d="M283.554 298.269L282.386 300.291C281.949 301.047 281.38 301.68 280.722 302.17C278.784 303.618 276.095 303.858 273.873 302.573L273.313 302.249C273.269 302.224 273.23 302.2 273.186 302.17C270.305 300.423 269.334 296.675 271.031 293.735L271.767 292.465C271.929 292.224 272.072 291.974 272.199 291.719L283.554 298.269Z" stroke="#48110C" stroke-width="1.5" stroke-linecap="round" stroke-linejoin="round"/>
<path d="M272.197 291.719C272.07 291.974 271.927 292.224 271.766 292.464L272.197 291.719Z" stroke="#48110C" stroke-width="1.5" stroke-linecap="round" stroke-linejoin="round"/>
<path d="M287.001 302.17H281.103H280.721" stroke="#48110C" stroke-width="1.5" stroke-linecap="round" stroke-linejoin="round"/>
<path d="M271.765 292.467C270.405 294.577 268.026 295.97 265.327 295.97H265.16L266.833 302.172H273.183" stroke="#48110C" stroke-width="1.5" stroke-linecap="round" stroke-linejoin="round"/>
<path d="M272.197 291.719V280.816" stroke="#48110C" stroke-width="1.5" stroke-linecap="round" stroke-linejoin="round"/>
<path d="M294.92 302.171C294.876 302.201 294.836 302.225 294.792 302.25L294.238 302.574C292.01 303.859 289.321 303.619 287.383 302.171C286.725 301.681 286.156 301.048 285.72 300.292L284.557 298.27L295.906 291.715C296.034 291.975 296.181 292.225 296.338 292.466L297.074 293.736C298.772 296.676 297.805 300.424 294.92 302.171Z" stroke="#48110C" stroke-width="1.5" stroke-linecap="round" stroke-linejoin="round"/>
<path d="M296.34 292.464C296.183 292.224 296.036 291.974 295.908 291.719L296.34 292.464Z" stroke="#48110C" stroke-width="1.5" stroke-linecap="round" stroke-linejoin="round"/>
<path d="M281.102 302.17H286.999H287.382" stroke="#48110C" stroke-width="1.5" stroke-linecap="round" stroke-linejoin="round"/>
<path d="M296.338 292.467C297.702 294.577 300.082 295.97 302.781 295.97H302.943L301.269 302.172H294.92" stroke="#48110C" stroke-width="1.5" stroke-linecap="round" stroke-linejoin="round"/>
<path d="M295.91 291.719V280.816" stroke="#48110C" stroke-width="1.5" stroke-linecap="round" stroke-linejoin="round"/>
<path d="M235.503 296.571C237.205 296.571 238.585 295.192 238.585 293.49C238.585 291.788 237.205 290.408 235.503 290.408C233.801 290.408 232.422 291.788 232.422 293.49C232.422 295.192 233.801 296.571 235.503 296.571Z" stroke="#48110C" stroke-width="1.5" stroke-linecap="round" stroke-linejoin="round"/>
<path d="M235.144 303.292C236.846 303.292 238.225 301.912 238.225 300.21C238.225 298.509 236.846 297.129 235.144 297.129C233.442 297.129 232.062 298.509 232.062 300.21C232.062 301.912 233.442 303.292 235.144 303.292Z" stroke="#48110C" stroke-width="1.5" stroke-linecap="round" stroke-linejoin="round"/>
<path d="M232.283 309.85C233.984 309.85 235.364 308.471 235.364 306.769C235.364 305.067 233.984 303.688 232.283 303.688C230.581 303.688 229.201 305.067 229.201 306.769C229.201 308.471 230.581 309.85 232.283 309.85Z" stroke="#48110C" stroke-width="1.5" stroke-linecap="round" stroke-linejoin="round"/>
<path d="M225.937 312.45C227.639 312.45 229.018 311.07 229.018 309.369C229.018 307.667 227.639 306.287 225.937 306.287C224.235 306.287 222.855 307.667 222.855 309.369C222.855 311.07 224.235 312.45 225.937 312.45Z" stroke="#48110C" stroke-width="1.5" stroke-linecap="round" stroke-linejoin="round"/>
<path d="M235.132 289.854C236.834 289.854 238.214 288.475 238.214 286.773C238.214 285.071 236.834 283.691 235.132 283.691C233.43 283.691 232.051 285.071 232.051 286.773C232.051 288.475 233.43 289.854 235.132 289.854Z" stroke="#48110C" stroke-width="1.5" stroke-linecap="round" stroke-linejoin="round"/>
<path d="M232.277 283.292C233.979 283.292 235.358 281.912 235.358 280.21C235.358 278.509 233.979 277.129 232.277 277.129C230.575 277.129 229.195 278.509 229.195 280.21C229.195 281.912 230.575 283.292 232.277 283.292Z" stroke="#48110C" stroke-width="1.5" stroke-linecap="round" stroke-linejoin="round"/>
<path d="M225.929 280.698C227.631 280.698 229.011 279.318 229.011 277.617C229.011 275.915 227.631 274.535 225.929 274.535C224.227 274.535 222.848 275.915 222.848 277.617C222.848 279.318 224.227 280.698 225.929 280.698Z" stroke="#48110C" stroke-width="1.5" stroke-linecap="round" stroke-linejoin="round"/>
<path d="M216.367 296.571C218.068 296.571 219.448 295.192 219.448 293.49C219.448 291.788 218.068 290.408 216.367 290.408C214.665 290.408 213.285 291.788 213.285 293.49C213.285 295.192 214.665 296.571 216.367 296.571Z" stroke="#48110C" stroke-width="1.5" stroke-linecap="round" stroke-linejoin="round"/>
<path d="M216.726 289.854C218.428 289.854 219.807 288.475 219.807 286.773C219.807 285.071 218.428 283.691 216.726 283.691C215.024 283.691 213.645 285.071 213.645 286.773C213.645 288.475 215.024 289.854 216.726 289.854Z" stroke="#48110C" stroke-width="1.5" stroke-linecap="round" stroke-linejoin="round"/>
<path d="M219.583 283.292C221.285 283.292 222.665 281.912 222.665 280.21C222.665 278.509 221.285 277.129 219.583 277.129C217.882 277.129 216.502 278.509 216.502 280.21C216.502 281.912 217.882 283.292 219.583 283.292Z" stroke="#48110C" stroke-width="1.5" stroke-linecap="round" stroke-linejoin="round"/>
<path d="M216.73 303.292C218.432 303.292 219.811 301.912 219.811 300.21C219.811 298.509 218.432 297.129 216.73 297.129C215.028 297.129 213.648 298.509 213.648 300.21C213.648 301.912 215.028 303.292 216.73 303.292Z" stroke="#48110C" stroke-width="1.5" stroke-linecap="round" stroke-linejoin="round"/>
<path d="M219.589 309.85C221.291 309.85 222.671 308.471 222.671 306.769C222.671 305.067 221.291 303.688 219.589 303.688C217.887 303.688 216.508 305.067 216.508 306.769C216.508 308.471 217.887 309.85 219.589 309.85Z" stroke="#48110C" stroke-width="1.5" stroke-linecap="round" stroke-linejoin="round"/>
<path d="M225.937 312.45C227.639 312.45 229.018 311.07 229.018 309.369C229.018 307.667 227.639 306.287 225.937 306.287C224.235 306.287 222.855 307.667 222.855 309.369C222.855 311.07 224.235 312.45 225.937 312.45Z" stroke="#48110C" stroke-width="1.5" stroke-linecap="round" stroke-linejoin="round"/>
<path d="M346.292 287.2C342.367 291.616 340.895 296.395 340.895 296.395C340.541 297.033 339.869 297.431 339.138 297.431H332.553L325.684 305.35H341.719C344.545 305.35 345.262 303.937 345.914 302.146C346.959 299.266 348.373 291.121 353.888 291.121L353.662 305.331L358.559 305.35V280.816C354.143 280.816 350.218 282.779 346.292 287.195V287.2Z" stroke="#48110C" stroke-width="1.5" stroke-linecap="round" stroke-linejoin="round"/>
<path d="M66.6708 294.477C66.6708 296.042 66.0329 297.46 65.0123 298.486C63.9868 299.506 62.5687 300.144 61.0035 300.144H59.9681C56.9946 300.144 54.5608 297.858 54.3204 294.943C54.3057 294.796 54.3008 294.644 54.3008 294.491V294.472C54.3008 293.584 54.6688 292.774 55.2527 292.19C55.8415 291.601 56.656 291.238 57.554 291.238H63.4225C65.2135 291.238 66.6659 292.686 66.6757 294.472L66.6708 294.477Z" stroke="#48110C" stroke-width="1.5" stroke-linecap="round" stroke-linejoin="round"/>
<path d="M49.3749 294.477C49.3749 294.624 49.3651 294.771 49.3553 294.913C49.2473 296.307 48.6438 297.553 47.7164 298.486C46.6909 299.506 45.2728 300.144 43.7076 300.144H42.6722C39.5466 300.144 37.0147 297.617 37 294.491V294.472C37 293.584 37.368 292.774 37.9519 292.19C38.5407 291.601 39.3553 291.238 40.2532 291.238H46.1217C47.9127 291.238 49.3651 292.686 49.3749 294.472V294.477Z" stroke="#48110C" stroke-width="1.5" stroke-linecap="round" stroke-linejoin="round"/>
<path d="M37.8027 292.348C37.8027 292.348 42.0324 285.753 43.6909 284.497C45.3641 283.231 47.1992 284.331 47.003 286.337" stroke="#48110C" stroke-width="1.5" stroke-linecap="round" stroke-linejoin="round"/>
<path d="M65.7811 292.348C65.7811 292.348 61.5515 285.753 59.893 284.497C58.2198 283.231 56.3846 284.331 56.5809 286.337" stroke="#48110C" stroke-width="1.5" stroke-linecap="round" stroke-linejoin="round"/>
<path d="M49.334 294.976C49.6726 293.94 50.6637 293.189 51.8266 293.189C52.9895 293.189 54.0641 294.004 54.3585 295.108" stroke="#48110C" stroke-width="1.5" stroke-linecap="round" stroke-linejoin="round"/>
<path d="M183.694 285.458L178.999 290.154L176.393 287.548V306.861H159.391V287.74L156.977 290.154L152.281 285.458L156.81 280.87C157.836 279.83 159.234 279.246 160.691 279.246H162.595C162.674 281.228 165.063 282.818 167.988 282.818C170.912 282.818 173.302 281.228 173.38 279.246H175.147C176.575 279.246 177.949 279.805 178.964 280.811L183.694 285.458Z" stroke="#48110C" stroke-width="1.5" stroke-linecap="round" stroke-linejoin="round"/>
<path d="M123.98 301.507L120.785 285.879C120.663 285.281 120.3 284.815 119.833 284.604C120.3 284.922 120.609 285.457 120.609 286.066C120.609 287.979 119.833 289.711 118.582 290.963C117.331 292.214 115.594 292.994 113.68 292.994H104.882C101.055 292.994 97.954 289.893 97.954 286.066C97.954 285.899 97.9785 285.737 98.0178 285.59C97.9884 285.683 97.9589 285.781 97.9393 285.879L94.745 301.507C94.1807 304.27 95.9766 306.924 98.4054 306.924H120.324C122.753 306.924 124.544 304.27 123.98 301.507ZM111.556 296.331C111.556 297.572 110.55 298.573 109.313 298.573C108.077 298.573 107.071 297.572 107.071 296.331V295.295C107.071 294.059 108.077 293.053 109.313 293.053C109.931 293.053 110.491 293.303 110.898 293.711C111.305 294.118 111.556 294.677 111.556 295.295V296.331Z" stroke="#48110C" stroke-width="1.5" stroke-linecap="round" stroke-linejoin="round"/>
<path d="M111.553 295.297V296.332C111.553 297.574 110.547 298.575 109.311 298.575C108.074 298.575 107.068 297.574 107.068 296.332V295.297C107.068 294.061 108.074 293.055 109.311 293.055C109.929 293.055 110.488 293.305 110.896 293.712C111.303 294.119 111.553 294.679 111.553 295.297Z" stroke="#48110C" stroke-width="1.5" stroke-linecap="round" stroke-linejoin="round"/>
<path d="M120.61 286.066C120.61 287.98 119.834 289.712 118.583 290.963C117.332 292.214 115.595 292.995 113.681 292.995H104.883C101.056 292.995 97.9551 289.894 97.9551 286.066C97.9551 285.899 97.9796 285.738 98.0189 285.59C98.0189 285.585 98.0238 285.581 98.0238 285.581C98.1072 285.286 98.2642 285.026 98.4752 284.815C98.7941 284.496 99.2407 284.295 99.7264 284.295H118.838C119.206 284.295 119.545 284.408 119.83 284.599C119.83 284.599 119.834 284.599 119.834 284.604C120.301 284.923 120.61 285.458 120.61 286.066Z" stroke="#48110C" stroke-width="1.5" stroke-linecap="round" stroke-linejoin="round"/>
<path d="M111.553 295.297V296.332C111.553 297.574 110.547 298.575 109.311 298.575C108.074 298.575 107.068 297.574 107.068 296.332V295.297C107.068 294.061 108.074 293.055 109.311 293.055C109.929 293.055 110.488 293.305 110.896 293.712C111.303 294.119 111.553 294.679 111.553 295.297Z" stroke="#48110C" stroke-width="1.5" stroke-linecap="round" stroke-linejoin="round"/>
<path d="M102.805 284.295V282.877C102.805 280.007 105.135 277.676 108.006 277.676H110.665C113.541 277.676 115.867 280.007 115.867 282.877V284.295" stroke="#48110C" stroke-width="1.5" stroke-linecap="round" stroke-linejoin="round"/>
<path d="M184.76 232.321V239.524C184.76 242.404 182.611 244.774 179.833 245.127C179.568 245.162 179.367 245.387 179.367 245.657V249.406L175.456 245.966C174.877 245.451 174.127 245.171 173.356 245.171H167.439C165.211 245.171 163.288 243.886 162.375 242.016L162.409 241.987C163.136 241.349 164.063 241.001 165.025 241.001H172.385C176.261 241.001 179.402 237.86 179.402 233.979V226.678C182.385 226.83 184.76 229.298 184.76 232.321Z" stroke="#48110C" stroke-width="1.5" stroke-linecap="round" stroke-linejoin="round"/>
<path d="M172.387 218H157.863C153.987 218 150.842 221.14 150.842 225.017V233.976C150.842 237.554 153.516 240.503 156.975 240.944C157.304 240.983 157.549 241.268 157.549 241.602V246.263L162.378 242.014L162.412 241.984C163.138 241.346 164.066 240.998 165.027 240.998H172.387C176.264 240.998 179.404 237.858 179.404 233.976V225.017C179.404 221.14 176.264 218 172.387 218Z" stroke="#48110C" stroke-width="1.5" stroke-linecap="round" stroke-linejoin="round"/>
<path d="M159.004 229.271C159.277 229.271 159.5 229.495 159.5 229.768C159.5 230.04 159.277 230.264 159.004 230.264C158.731 230.264 158.508 230.04 158.508 229.768C158.508 229.495 158.731 229.272 159.004 229.271Z" fill="black" stroke="#48110C" stroke-width="1.5"/>
<path d="M165.123 229.271C165.396 229.271 165.619 229.495 165.619 229.768C165.619 230.04 165.396 230.264 165.123 230.264C164.85 230.264 164.627 230.04 164.627 229.768C164.627 229.495 164.85 229.272 165.123 229.271Z" fill="black" stroke="#48110C" stroke-width="1.5"/>
<path d="M171.242 229.271C171.518 229.271 171.738 229.493 171.738 229.768C171.738 230.04 171.515 230.264 171.242 230.264C170.967 230.264 170.746 230.042 170.746 229.768C170.746 229.493 170.967 229.272 171.242 229.271Z" fill="black" stroke="#48110C" stroke-width="1.5"/>
<path d="M59.1791 335.779H43.2812V362.645H59.1791V335.779Z" stroke="#48110C" stroke-width="1.5" stroke-linecap="round" stroke-linejoin="round"/>
<path d="M59.177 358.006H51.3359" stroke="#48110C" stroke-width="1.5" stroke-linecap="round" stroke-linejoin="round"/>
<path d="M59.177 349.129H51.3359" stroke="#48110C" stroke-width="1.5" stroke-linecap="round" stroke-linejoin="round"/>
<path d="M59.177 340.25H51.3359" stroke="#48110C" stroke-width="1.5" stroke-linecap="round" stroke-linejoin="round"/>
<path d="M58.5947 353.566H54.6719" stroke="#48110C" stroke-width="1.5" stroke-linecap="round" stroke-linejoin="round"/>
<path d="M58.5947 344.689H54.6719" stroke="#48110C" stroke-width="1.5" stroke-linecap="round" stroke-linejoin="round"/>
<path d="M355.252 234.349C355.221 234.38 355.185 234.411 355.154 234.448L355.196 234.489L342.253 247.445L329.738 234.912C329.527 234.732 329.32 234.54 329.119 234.344C324.984 230.203 324.514 223.96 328.078 220.397C331.563 216.906 337.622 217.283 341.753 221.208C341.835 221.28 342.186 221.636 342.186 221.636C342.186 221.636 342.33 221.481 342.366 221.445C346.497 217.299 352.736 216.829 356.294 220.397C359.852 223.96 359.383 230.208 355.252 234.355V234.349Z" stroke="#48110C" stroke-width="1.5" stroke-linecap="round" stroke-linejoin="round"/>
<path d="M337.519 354.996C343.259 354.996 347.912 350.342 347.912 344.602C347.912 338.862 343.259 334.209 337.519 334.209C331.778 334.209 327.125 338.862 327.125 344.602C327.125 350.342 331.778 354.996 337.519 354.996Z" stroke="#48110C" stroke-width="1.5" stroke-linecap="round" stroke-linejoin="round"/>
<path d="M344.877 351.947L356.962 364.046" stroke="#48110C" stroke-width="1.5" stroke-linecap="round" stroke-linejoin="round"/>
<path d="M337.518 340.365V348.829" stroke="#48110C" stroke-width="1.5" stroke-linecap="round" stroke-linejoin="round"/>
<path d="M333.281 344.598H341.75" stroke="#48110C" stroke-width="1.5" stroke-linecap="round" stroke-linejoin="round"/>
<path d="M234.078 337.321L214.121 357.277L217.793 360.949L237.75 340.993L234.078 337.321Z" stroke="#48110C" stroke-width="1.5" stroke-linecap="round" stroke-linejoin="round"/>
<path d="M231.794 346.789L228.309 343.305" stroke="#48110C" stroke-width="1.5" stroke-linecap="round" stroke-linejoin="round"/>
<path d="M215.763 332.641C215.763 336.135 212.931 338.962 209.441 338.962" stroke="#48110C" stroke-width="1.5" stroke-linecap="round" stroke-linejoin="round"/>
<path d="M222.09 338.962C218.595 338.962 215.768 336.13 215.768 332.641" stroke="#48110C" stroke-width="1.5" stroke-linecap="round" stroke-linejoin="round"/>
<path d="M215.768 345.289C215.768 341.794 218.6 338.967 222.09 338.967" stroke="#48110C" stroke-width="1.5" stroke-linecap="round" stroke-linejoin="round"/>
<path d="M209.441 338.967C212.936 338.967 215.763 341.799 215.763 345.289" stroke="#48110C" stroke-width="1.5" stroke-linecap="round" stroke-linejoin="round"/>
<path d="M236.093 352.969C236.093 356.463 233.261 359.29 229.771 359.29" stroke="#48110C" stroke-width="1.5" stroke-linecap="round" stroke-linejoin="round"/>
<path d="M242.42 359.29C238.925 359.29 236.098 356.458 236.098 352.969" stroke="#48110C" stroke-width="1.5" stroke-linecap="round" stroke-linejoin="round"/>
<path d="M236.098 365.619C236.098 362.124 238.93 359.297 242.42 359.297" stroke="#48110C" stroke-width="1.5" stroke-linecap="round" stroke-linejoin="round"/>
<path d="M229.771 359.297C233.266 359.297 236.093 362.129 236.093 365.619" stroke="#48110C" stroke-width="1.5" stroke-linecap="round" stroke-linejoin="round"/>
<path d="M151.1 348.482C151.533 348.482 151.885 348.834 151.885 349.268C151.885 349.701 151.533 350.053 151.1 350.053H148.744C148.311 350.053 147.959 349.701 147.959 349.268C147.959 348.834 148.311 348.482 148.744 348.482H151.1ZM160.522 348.482C160.956 348.482 161.307 348.834 161.307 349.268C161.307 349.701 160.956 350.053 160.522 350.053H155.811C155.377 350.053 155.026 349.701 155.026 349.268C155.026 348.834 155.377 348.482 155.811 348.482H160.522ZM169.944 348.482C170.378 348.482 170.73 348.834 170.73 349.268C170.73 349.701 170.378 350.053 169.944 350.053H165.233C164.8 350.053 164.448 349.701 164.448 349.268C164.448 348.834 164.8 348.482 165.233 348.482H169.944ZM179.367 348.482C179.8 348.482 180.152 348.834 180.152 349.268C180.152 349.701 179.8 350.053 179.367 350.053H174.655C174.222 350.053 173.87 349.701 173.87 349.268C173.87 348.834 174.222 348.482 174.655 348.482H179.367ZM186.433 348.482C186.867 348.482 187.219 348.834 187.219 349.268C187.219 349.701 186.867 350.053 186.433 350.053H184.078C183.644 350.053 183.293 349.701 183.293 349.268C183.293 348.834 183.644 348.482 184.078 348.482H186.433Z" fill="#48110C"/>
<path d="M182.393 345.431L183.685 340.654L158.231 334.209L155.195 345.431" stroke="#48110C" stroke-width="1.5" stroke-linecap="round" stroke-linejoin="round"/>
<path d="M153.127 353.066L151.568 358.841L177.023 365.286L180.325 353.071" stroke="#48110C" stroke-width="1.5" stroke-linecap="round" stroke-linejoin="round"/>
<path d="M124.479 353.832L121.408 350.982C121.408 357.523 116.103 362.828 109.562 362.828C105.177 362.828 101.348 360.446 99.3008 356.908" stroke="#48110C" stroke-width="1.5" stroke-linecap="round" stroke-linejoin="round"/>
<path d="M117.402 353.356L121.408 350.975" stroke="#48110C" stroke-width="1.5" stroke-linecap="round" stroke-linejoin="round"/>
<path d="M94.6406 343.205L97.7116 346.054C97.7116 339.514 103.017 334.209 109.557 334.209C113.952 334.209 117.791 336.606 119.833 340.159" stroke="#48110C" stroke-width="1.5" stroke-linecap="round" stroke-linejoin="round"/>
<path d="M101.87 343.678L97.7109 346.055" stroke="#48110C" stroke-width="1.5" stroke-linecap="round" stroke-linejoin="round"/>
<path d="M272.846 357.21L291.136 338.92L294.831 342.615L276.541 360.905L272.851 360.9L272.846 357.21Z" stroke="#48110C" stroke-width="1.5" stroke-linecap="round" stroke-linejoin="round"/>
<path d="M287.826 342.395L291.334 345.897" stroke="#48110C" stroke-width="1.5" stroke-linecap="round" stroke-linejoin="round"/>
</svg>
